<svg width="220" height="220" viewBox="0 0 220 220" fill="none" xmlns="http://www.w3.org/2000/svg">
<mask id="mask0_50_810" style="mask-type:alpha" maskUnits="userSpaceOnUse" x="0" y="0" width="220" height="220">
<g clip-path="url(#clip0_50_810)">
<path d="M64.4064 61.1692C49.5528 97.7445 70.3072 136.742 91.2469 145.248C112.187 153.755 154.307 140.127 169.116 103.686C171.908 96.8118 173.317 89.4548 173.265 82.0354C173.213 74.6161 171.701 67.2796 168.813 60.4448C165.926 53.6101 161.721 47.411 156.438 42.2014C151.155 36.9919 144.897 32.8739 138.023 30.0826C131.148 27.2914 123.791 25.8815 116.372 25.9335C108.953 25.9854 101.616 27.4982 94.7814 30.3855C87.9467 33.2728 81.7475 37.478 76.538 42.7611C71.3284 48.0441 67.2105 54.3015 64.4192 61.176L64.4064 61.1692Z" fill="#070707" stroke="#070707" stroke-width="11.3125" stroke-miterlimit="10"/>
<path d="M112.174 129.381C124.549 127.751 138.884 120.38 147.74 107.164L112.174 129.381ZM50.8732 182.413C63.249 180.782 76.0297 174.129 84.8846 160.916L50.8732 182.413Z" fill="#070707"/>
<path d="M112.174 129.381C124.549 127.751 138.884 120.38 147.74 107.164M50.8732 182.413C63.249 180.782 76.0297 174.129 84.8846 160.916" stroke="#070707" stroke-width="11.3125" stroke-miterlimit="10" stroke-linecap="round"/>
<path d="M96.4844 147.369L95.3567 165.168L74.4161 156.665L86.0159 143.118L96.4844 147.369Z" fill="#070707" stroke="#070707" stroke-width="11.3125" stroke-linecap="round" stroke-linejoin="round"/>
</g>
</mask>
<g mask="url(#mask0_50_810)">
<g filter="url(#filter0_b_50_810)">
<rect x="-23.5332" y="-42.759" width="334" height="206" rx="20" transform="rotate(14.0979 -23.5332 -42.759)" fill="url(#paint0_linear_50_810)"/>
<rect x="-23.8964" y="-43.3658" width="335" height="207" rx="20.5" transform="rotate(14.0979 -23.8964 -43.3658)" stroke="url(#paint1_radial_50_810)"/>
</g>
</g>
<path fill-rule="evenodd" clip-rule="evenodd" d="M115.001 73.3333C110.474 73.3333 109.907 73.3533 108.129 73.4333C106.356 73.515 105.144 73.7966 104.084 74.2083C102.971 74.6263 101.964 75.2822 101.131 76.13C100.283 76.9629 99.627 77.9708 99.209 79.0833C98.7973 80.1433 98.5157 81.355 98.434 83.1283C98.3523 84.9066 98.334 85.4733 98.334 90C98.334 94.5266 98.3523 95.0933 98.434 96.8716C98.5157 98.645 98.7973 99.8566 99.209 100.917C99.627 102.029 100.283 103.037 101.131 103.87C101.964 104.718 102.971 105.374 104.084 105.792C105.144 106.203 106.356 106.485 108.129 106.567C109.907 106.647 110.474 106.667 115.001 106.667C119.527 106.667 120.094 106.647 121.872 106.567C123.646 106.485 124.857 106.203 125.917 105.792C127.03 105.374 128.038 104.718 128.871 103.87C129.718 103.037 130.374 102.029 130.792 100.917C131.204 99.8566 131.486 98.645 131.567 96.8716C131.647 95.0933 131.667 94.5266 131.667 90C131.667 85.4733 131.647 84.9066 131.567 83.1283C131.486 81.355 131.204 80.1433 130.792 79.0833C130.374 77.9708 129.718 76.9629 128.871 76.13C128.038 75.2822 127.03 74.6263 125.917 74.2083C124.857 73.7966 123.646 73.515 121.872 73.4333C120.094 73.3533 119.527 73.3333 115.001 73.3333ZM115.001 76.3366C119.451 76.3366 119.977 76.3533 121.734 76.4333C123.361 76.5083 124.242 76.7783 124.831 77.0066C125.607 77.31 126.164 77.6716 126.747 78.2533C127.331 78.8366 127.691 79.3933 127.994 80.17C128.221 80.7583 128.494 81.64 128.567 83.265C128.647 85.0233 128.664 85.5483 128.664 90C128.664 94.45 128.647 94.9766 128.567 96.7333C128.492 98.36 128.221 99.2416 127.994 99.83C127.727 100.554 127.301 101.209 126.747 101.747C126.164 102.33 125.607 102.69 124.831 102.993C124.242 103.22 123.361 103.493 121.736 103.567C119.979 103.647 119.452 103.663 115.001 103.663C110.551 103.663 110.022 103.647 108.267 103.567C106.641 103.492 105.759 103.22 105.171 102.993C104.447 102.726 103.792 102.3 103.254 101.747C102.701 101.209 102.275 100.554 102.007 99.83C101.779 99.2416 101.507 98.36 101.434 96.735C101.354 94.9766 101.337 94.4516 101.337 90C101.337 85.55 101.354 85.0233 101.434 83.2666C101.509 81.64 101.779 80.7583 102.007 80.17C102.311 79.3933 102.672 78.8366 103.254 78.2533C103.837 77.67 104.394 77.31 105.171 77.0066C105.759 76.7783 106.641 76.5066 108.266 76.4333C110.024 76.3533 110.549 76.3366 115.001 76.3366ZM115.001 95.555C113.527 95.555 112.114 94.9697 111.073 93.928C110.031 92.8862 109.446 91.4733 109.446 90C109.446 88.5267 110.031 87.1138 111.073 86.072C112.114 85.0302 113.527 84.445 115.001 84.445C116.474 84.445 117.887 85.0302 118.929 86.072C119.97 87.1138 120.556 88.5267 120.556 90C120.556 91.4733 119.97 92.8862 118.929 93.928C117.887 94.9697 116.474 95.555 115.001 95.555ZM115.001 81.4416C113.877 81.4416 112.764 81.663 111.726 82.0931C110.687 82.5232 109.744 83.1536 108.949 83.9483C108.154 84.743 107.524 85.6865 107.094 86.7248C106.664 87.7632 106.442 88.8761 106.442 90C106.442 91.1239 106.664 92.2368 107.094 93.2751C107.524 94.3135 108.154 95.2569 108.949 96.0516C109.744 96.8463 110.687 97.4768 111.726 97.9068C112.764 98.3369 113.877 98.5583 115.001 98.5583C117.27 98.5583 119.447 97.6566 121.052 96.0516C122.657 94.4466 123.559 92.2698 123.559 90C123.559 87.7302 122.657 85.5533 121.052 83.9483C119.447 82.3433 117.27 81.4416 115.001 81.4416ZM125.897 81.1033C125.897 81.366 125.846 81.626 125.745 81.8687C125.645 82.1113 125.497 82.3318 125.312 82.5175C125.126 82.7032 124.905 82.8506 124.663 82.9511C124.42 83.0516 124.16 83.1033 123.897 83.1033C123.635 83.1033 123.375 83.0516 123.132 82.9511C122.889 82.8506 122.669 82.7032 122.483 82.5175C122.297 82.3318 122.15 82.1113 122.05 81.8687C121.949 81.626 121.897 81.366 121.897 81.1033C121.897 80.5729 122.108 80.0642 122.483 79.6891C122.858 79.314 123.367 79.1033 123.897 79.1033C124.428 79.1033 124.936 79.314 125.312 79.6891C125.687 80.0642 125.897 80.5729 125.897 81.1033Z" fill="white"/>
<defs>
<filter id="filter0_b_50_810" x="-112.446" y="-81.4948" width="451.589" height="358.622" filterUnits="userSpaceOnUse" color-interpolation-filters="sRGB">
<feFlood flood-opacity="0" result="BackgroundImageFix"/>
<feGaussianBlur in="BackgroundImageFix" stdDeviation="21"/>
<feComposite in2="SourceAlpha" operator="in" result="effect1_backgroundBlur_50_810"/>
<feBlend mode="normal" in="SourceGraphic" in2="effect1_backgroundBlur_50_810" result="shape"/>
</filter>
<linearGradient id="paint0_linear_50_810" x1="-23.5332" y1="-42.759" x2="335.331" y2="202.188" gradientUnits="userSpaceOnUse">
<stop stop-color="white" stop-opacity="0.47"/>
<stop offset="1" stop-color="white" stop-opacity="0"/>
</linearGradient>
<radialGradient id="paint1_radial_50_810" cx="0" cy="0" r="1" gradientUnits="userSpaceOnUse" gradientTransform="translate(-23.5332 -42.759) rotate(34.3723) scale(443.3 700.205)">
<stop stop-color="white" stop-opacity="0.7"/>
<stop offset="1" stop-color="white" stop-opacity="0"/>
</radialGradient>
<clipPath id="clip0_50_810">
<rect width="181" height="181" fill="white" transform="matrix(-0.969881 -0.243579 -0.243579 0.969881 219.637 44.0878)"/>
</clipPath>
</defs>
</svg>
