<svg width="220" height="220" viewBox="0 0 220 220" fill="none" xmlns="http://www.w3.org/2000/svg">
<mask id="mask0_50_768" style="mask-type:alpha" maskUnits="userSpaceOnUse" x="0" y="0" width="220" height="220">
<g clip-path="url(#clip0_50_768)">
<path d="M64.4064 61.1692C49.5528 97.7445 70.3072 136.742 91.2469 145.248C112.187 153.755 154.307 140.127 169.116 103.686C171.908 96.8118 173.317 89.4548 173.265 82.0354C173.213 74.6161 171.701 67.2796 168.813 60.4448C165.926 53.6101 161.721 47.411 156.438 42.2014C151.155 36.9919 144.897 32.8739 138.023 30.0826C131.148 27.2914 123.791 25.8815 116.372 25.9335C108.953 25.9854 101.616 27.4982 94.7814 30.3855C87.9467 33.2728 81.7475 37.478 76.538 42.7611C71.3284 48.0441 67.2105 54.3015 64.4192 61.176L64.4064 61.1692Z" fill="#070707" stroke="#070707" stroke-width="11.3125" stroke-miterlimit="10"/>
<path d="M112.174 129.381C124.549 127.751 138.884 120.38 147.74 107.164L112.174 129.381ZM50.8732 182.413C63.249 180.782 76.0297 174.129 84.8846 160.916L50.8732 182.413Z" fill="#070707"/>
<path d="M112.174 129.381C124.549 127.751 138.884 120.38 147.74 107.164M50.8732 182.413C63.249 180.782 76.0297 174.129 84.8846 160.916" stroke="#070707" stroke-width="11.3125" stroke-miterlimit="10" stroke-linecap="round"/>
<path d="M96.4844 147.369L95.3567 165.168L74.4161 156.665L86.0159 143.118L96.4844 147.369Z" fill="#070707" stroke="#070707" stroke-width="11.3125" stroke-linecap="round" stroke-linejoin="round"/>
</g>
</mask>
<g mask="url(#mask0_50_768)">
<g filter="url(#filter0_b_50_768)">
<rect x="-23.5332" y="-42.759" width="334" height="206" rx="20" transform="rotate(14.0979 -23.5332 -42.759)" fill="url(#paint0_linear_50_768)"/>
<rect x="-23.8964" y="-43.3658" width="335" height="207" rx="20.5" transform="rotate(14.0979 -23.8964 -43.3658)" stroke="url(#paint1_radial_50_768)"/>
</g>
<path d="M98.7684 93.5581C98.7684 94.3181 98.5951 94.9514 98.2484 95.4581C97.9018 95.9648 97.4418 96.3714 96.8684 96.6781C96.3084 96.9714 95.6951 97.1848 95.0284 97.3181C94.3751 97.4381 93.7351 97.4981 93.1084 97.4981C92.2951 97.4981 91.5284 97.3714 90.8084 97.1181C90.5151 97.0114 90.2284 96.8981 89.9484 96.7781C89.6684 96.6448 89.3751 96.5381 89.0684 96.4581C89.0151 96.0314 88.9218 95.5648 88.7884 95.0581C88.6684 94.5514 88.6084 94.0914 88.6084 93.6781C88.6084 93.4914 88.6351 93.3514 88.6884 93.2581C88.7551 93.1514 88.8951 93.0981 89.1084 93.0981C89.2951 93.0981 89.4151 93.1448 89.4684 93.2381C89.5218 93.3181 89.5618 93.4314 89.5884 93.5781C89.6418 93.7648 89.6884 93.9514 89.7284 94.1381C89.7684 94.3114 89.8151 94.4914 89.8684 94.6781C90.1351 95.4781 90.5284 96.0381 91.0484 96.3581C91.5818 96.6781 92.2618 96.8381 93.0884 96.8381C93.7684 96.8381 94.3751 96.7448 94.9084 96.5581C95.4551 96.3581 95.8818 96.0381 96.1884 95.5981C96.5084 95.1581 96.6684 94.5714 96.6684 93.8381C96.6684 93.2648 96.4751 92.7514 96.0884 92.2981C95.7018 91.8314 95.2751 91.4648 94.8084 91.1981C94.7018 91.1314 94.5884 91.0714 94.4684 91.0181C94.3484 90.9648 94.2284 90.9114 94.1084 90.8581C93.6951 90.6448 93.2751 90.4314 92.8484 90.2181C92.4351 90.0048 92.0151 89.7981 91.5884 89.5981C91.1751 89.3848 90.7484 89.1181 90.3084 88.7981C89.8818 88.4648 89.5151 88.0848 89.2084 87.6581C88.9151 87.2314 88.7684 86.7648 88.7684 86.2581C88.7684 85.4048 88.9951 84.6981 89.4484 84.1381C89.9018 83.5781 90.4818 83.1581 91.1884 82.8781C91.8951 82.5981 92.6284 82.4581 93.3884 82.4581C93.9351 82.4581 94.4218 82.5248 94.8484 82.6581C95.2884 82.7914 95.7218 82.9314 96.1484 83.0781C96.5751 83.2114 97.0418 83.3048 97.5484 83.3581C97.5884 83.7581 97.6284 84.1581 97.6684 84.5581C97.7084 84.9581 97.7684 85.3581 97.8484 85.7581C97.8618 85.8114 97.8684 85.8648 97.8684 85.9181C97.8818 85.9714 97.8884 86.0248 97.8884 86.0781C97.8884 86.2914 97.8151 86.4314 97.6684 86.4981C97.5351 86.5514 97.3818 86.5781 97.2084 86.5781C97.0351 86.5781 96.9418 86.5448 96.9284 86.4781C96.9151 86.4114 96.8951 86.3114 96.8684 86.1781C96.6951 85.1114 96.3284 84.3114 95.7684 83.7781C95.2084 83.2314 94.3684 82.9581 93.2484 82.9581C92.4218 82.9581 91.7751 83.1781 91.3084 83.6181C90.8551 84.0581 90.6284 84.6981 90.6284 85.5381C90.6284 86.0981 90.7751 86.5714 91.0684 86.9581C91.3618 87.3448 91.7484 87.6848 92.2284 87.9781C92.7218 88.2581 93.2551 88.5248 93.8284 88.7781C94.4151 89.0314 94.9951 89.2914 95.5684 89.5581C96.1418 89.8248 96.6684 90.1381 97.1484 90.4981C97.6418 90.8448 98.0351 91.2648 98.3284 91.7581C98.6218 92.2514 98.7684 92.8514 98.7684 93.5581ZM111.343 97.0181C111.343 97.1114 111.25 97.1781 111.063 97.2181C110.877 97.2581 110.677 97.2848 110.463 97.2981C110.263 97.3114 110.123 97.3181 110.043 97.3181C109.857 97.3181 109.65 97.3181 109.423 97.3181C109.197 97.3048 108.99 97.2714 108.803 97.2181C108.63 97.1648 108.483 97.0714 108.363 96.9381C108.257 96.8048 108.163 96.6714 108.083 96.5381C107.483 95.6181 106.89 94.6981 106.303 93.7781C105.717 92.8581 105.137 91.9314 104.563 90.9981L103.403 91.8581V96.3381C103.403 96.6581 103.563 96.8181 103.883 96.8181C104.003 96.8181 104.123 96.8181 104.243 96.8181C104.363 96.8048 104.477 96.7981 104.583 96.7981C104.65 96.7981 104.717 96.8181 104.783 96.8581C104.863 96.8981 104.903 96.9581 104.903 97.0381C104.903 97.1981 104.83 97.2781 104.683 97.2781C104.31 97.2781 103.943 97.2781 103.583 97.2781C103.223 97.2648 102.857 97.2581 102.483 97.2581C102.23 97.2581 101.963 97.2648 101.683 97.2781C101.417 97.2781 101.15 97.2848 100.883 97.2981C100.803 97.2981 100.717 97.3048 100.623 97.3181C100.543 97.3314 100.457 97.3381 100.363 97.3381C100.31 97.3381 100.263 97.3114 100.223 97.2581C100.197 97.1914 100.183 97.1314 100.183 97.0781C100.183 96.9848 100.223 96.9248 100.303 96.8981C100.383 96.8714 100.457 96.8581 100.523 96.8581C100.59 96.8581 100.663 96.8648 100.743 96.8781C100.823 96.8781 100.897 96.8781 100.963 96.8781C101.177 96.8781 101.343 96.8581 101.463 96.8181C101.583 96.7648 101.643 96.6181 101.643 96.3781V83.4981C101.643 83.1914 101.59 82.9848 101.483 82.8781C101.377 82.7714 101.163 82.7181 100.843 82.7181C100.737 82.7181 100.63 82.7314 100.523 82.7581C100.417 82.7714 100.31 82.7781 100.203 82.7781C100.07 82.7781 100.003 82.7114 100.003 82.5781C100.003 82.4848 100.057 82.4248 100.163 82.3981C100.417 82.3314 100.677 82.2848 100.943 82.2581C101.223 82.2181 101.49 82.1781 101.743 82.1381C101.863 82.1114 102.03 82.0781 102.243 82.0381C102.457 81.9848 102.663 81.9381 102.863 81.8981C103.077 81.8581 103.223 81.8381 103.303 81.8381C103.37 81.8381 103.403 81.8781 103.403 81.9581L103.383 91.2581C104.063 90.7514 104.717 90.2181 105.343 89.6581C105.97 89.0981 106.59 88.5314 107.203 87.9581C107.43 87.7581 107.643 87.5581 107.843 87.3581C108.043 87.1448 108.23 86.9248 108.403 86.6981C108.483 86.6048 108.597 86.5581 108.743 86.5581C108.877 86.5581 109.003 86.5648 109.123 86.5781C109.257 86.5914 109.39 86.5981 109.523 86.5981C109.683 86.5981 109.843 86.5914 110.003 86.5781C110.177 86.5648 110.343 86.5581 110.503 86.5581C110.703 86.5581 110.803 86.6648 110.803 86.8781C110.803 86.9848 110.723 87.0381 110.563 87.0381C110.35 87.0514 110.143 87.0714 109.943 87.0981C109.743 87.1248 109.55 87.2114 109.363 87.3581C108.763 87.7848 108.177 88.2381 107.603 88.7181C107.03 89.1981 106.45 89.6714 105.863 90.1381C106.103 90.5514 106.357 90.9581 106.623 91.3581C106.89 91.7448 107.15 92.1314 107.403 92.5181C107.763 93.0514 108.123 93.5848 108.483 94.1181C108.857 94.6381 109.23 95.1581 109.603 95.6781C109.79 95.9314 110.023 96.1848 110.303 96.4381C110.597 96.6781 110.903 96.8114 111.223 96.8381C111.303 96.8514 111.343 96.9114 111.343 97.0181ZM117.699 97.0181C117.699 97.0848 117.679 97.1514 117.639 97.2181C117.599 97.2714 117.546 97.2981 117.479 97.2981C117.106 97.2981 116.733 97.2914 116.359 97.2781C115.999 97.2514 115.626 97.2381 115.239 97.2381H114.699C114.299 97.2381 113.899 97.2514 113.499 97.2781C113.113 97.2914 112.726 97.2981 112.339 97.2981C112.286 97.2981 112.246 97.2648 112.219 97.1981C112.206 97.1314 112.199 97.0781 112.199 97.0381C112.199 96.9714 112.206 96.9248 112.219 96.8981C112.233 96.8581 112.273 96.8314 112.339 96.8181C112.406 96.7914 112.479 96.7848 112.559 96.7981C112.653 96.7981 112.739 96.7981 112.819 96.7981C112.913 96.7981 112.999 96.8048 113.079 96.8181C113.159 96.8181 113.246 96.8181 113.339 96.8181C113.526 96.8181 113.693 96.7781 113.839 96.6981C113.999 96.6048 114.079 96.4514 114.079 96.2381V88.2381C114.079 88.0114 114.039 87.8381 113.959 87.7181C113.879 87.5848 113.713 87.5181 113.459 87.5181C113.273 87.5181 113.079 87.5314 112.879 87.5581C112.693 87.5714 112.506 87.5914 112.319 87.6181C112.213 87.6181 112.159 87.5581 112.159 87.4381C112.159 87.3048 112.213 87.2181 112.319 87.1781C112.479 87.1248 112.646 87.0914 112.819 87.0781C113.006 87.0514 113.179 87.0248 113.339 86.9981C113.713 86.9314 114.086 86.8581 114.459 86.7781C114.833 86.6981 115.199 86.6114 115.559 86.5181C115.599 86.5048 115.653 86.4981 115.719 86.4981C115.866 86.4981 115.939 86.5781 115.939 86.7381C115.939 88.3114 115.933 89.8914 115.919 91.4781C115.919 93.0648 115.919 94.6514 115.919 96.2381C115.919 96.4514 116.013 96.6048 116.199 96.6981C116.399 96.7781 116.586 96.8181 116.759 96.8181C116.893 96.8181 117.026 96.8114 117.159 96.7981C117.306 96.7848 117.446 96.7781 117.579 96.7781C117.633 96.7781 117.666 96.8114 117.679 96.8781C117.693 96.9448 117.699 96.9914 117.699 97.0181ZM116.079 83.1781C116.079 83.5114 115.959 83.7981 115.719 84.0381C115.479 84.2648 115.193 84.3781 114.859 84.3781C114.526 84.3781 114.239 84.2648 113.999 84.0381C113.759 83.7981 113.639 83.5114 113.639 83.1781C113.639 82.8448 113.759 82.5648 113.999 82.3381C114.239 82.0981 114.526 81.9781 114.859 81.9781C115.193 81.9781 115.479 82.0981 115.719 82.3381C115.959 82.5648 116.079 82.8448 116.079 83.1781ZM124.534 97.0581C124.534 97.1248 124.514 97.1914 124.474 97.2581C124.448 97.3114 124.394 97.3381 124.314 97.3381C123.901 97.3381 123.481 97.3314 123.054 97.3181C122.628 97.2914 122.201 97.2781 121.774 97.2781H121.074C120.794 97.2781 120.514 97.2914 120.234 97.3181C119.954 97.3314 119.674 97.3381 119.394 97.3381C119.341 97.3381 119.301 97.3181 119.274 97.2781C119.261 97.2248 119.254 97.1781 119.254 97.1381C119.254 97.0981 119.254 97.0581 119.254 97.0181C119.254 96.9781 119.261 96.9381 119.274 96.8981C119.301 96.8448 119.374 96.8181 119.494 96.8181C119.628 96.8048 119.761 96.8048 119.894 96.8181C120.041 96.8181 120.134 96.8181 120.174 96.8181C120.361 96.8181 120.528 96.7781 120.674 96.6981C120.821 96.6048 120.894 96.4514 120.894 96.2381C120.894 95.2114 120.901 94.1914 120.914 93.1781C120.928 92.1514 120.934 91.1314 120.934 90.1181C120.934 89.0781 120.928 88.0381 120.914 86.9981C120.914 85.9448 120.914 84.8981 120.914 83.8581C120.914 83.7648 120.908 83.6648 120.894 83.5581C120.881 83.4381 120.841 83.3448 120.774 83.2781C120.721 83.2114 120.668 83.1781 120.614 83.1781C120.561 83.1648 120.494 83.1581 120.414 83.1581C120.174 83.1581 119.934 83.1981 119.694 83.2781C119.468 83.3581 119.241 83.3981 119.014 83.3981C118.868 83.3981 118.794 83.3114 118.794 83.1381C118.794 83.0314 118.874 82.9581 119.034 82.9181C119.208 82.8781 119.341 82.8514 119.434 82.8381C119.901 82.7314 120.408 82.6114 120.954 82.4781C121.501 82.3448 121.994 82.1914 122.434 82.0181C122.461 82.0181 122.488 82.0114 122.514 81.9981C122.541 81.9848 122.561 81.9781 122.574 81.9781C122.654 81.9781 122.701 82.0048 122.714 82.0581C122.741 82.1114 122.754 82.1714 122.754 82.2381C122.754 82.6114 122.748 82.9848 122.734 83.3581C122.734 83.7181 122.734 84.0848 122.734 84.4581V90.0581C122.734 91.0848 122.741 92.1181 122.754 93.1581C122.768 94.1848 122.774 95.2114 122.774 96.2381C122.774 96.4514 122.861 96.6048 123.034 96.6981C123.221 96.7781 123.401 96.8181 123.574 96.8181C123.721 96.8181 123.861 96.8114 123.994 96.7981C124.128 96.7848 124.261 96.7781 124.394 96.7781C124.461 96.7781 124.501 96.8181 124.514 96.8981C124.528 96.9648 124.534 97.0181 124.534 97.0581ZM131.448 97.0581C131.448 97.1248 131.428 97.1914 131.388 97.2581C131.362 97.3114 131.308 97.3381 131.228 97.3381C130.815 97.3381 130.395 97.3314 129.968 97.3181C129.542 97.2914 129.115 97.2781 128.688 97.2781H127.988C127.708 97.2781 127.428 97.2914 127.148 97.3181C126.868 97.3314 126.588 97.3381 126.308 97.3381C126.255 97.3381 126.215 97.3181 126.188 97.2781C126.175 97.2248 126.168 97.1781 126.168 97.1381C126.168 97.0981 126.168 97.0581 126.168 97.0181C126.168 96.9781 126.175 96.9381 126.188 96.8981C126.215 96.8448 126.288 96.8181 126.408 96.8181C126.542 96.8048 126.675 96.8048 126.808 96.8181C126.955 96.8181 127.048 96.8181 127.088 96.8181C127.275 96.8181 127.442 96.7781 127.588 96.6981C127.735 96.6048 127.808 96.4514 127.808 96.2381C127.808 95.2114 127.815 94.1914 127.828 93.1781C127.842 92.1514 127.848 91.1314 127.848 90.1181C127.848 89.0781 127.842 88.0381 127.828 86.9981C127.828 85.9448 127.828 84.8981 127.828 83.8581C127.828 83.7648 127.822 83.6648 127.808 83.5581C127.795 83.4381 127.755 83.3448 127.688 83.2781C127.635 83.2114 127.582 83.1781 127.528 83.1781C127.475 83.1648 127.408 83.1581 127.328 83.1581C127.088 83.1581 126.848 83.1981 126.608 83.2781C126.382 83.3581 126.155 83.3981 125.928 83.3981C125.782 83.3981 125.708 83.3114 125.708 83.1381C125.708 83.0314 125.788 82.9581 125.948 82.9181C126.122 82.8781 126.255 82.8514 126.348 82.8381C126.815 82.7314 127.322 82.6114 127.868 82.4781C128.415 82.3448 128.908 82.1914 129.348 82.0181C129.375 82.0181 129.402 82.0114 129.428 81.9981C129.455 81.9848 129.475 81.9781 129.488 81.9781C129.568 81.9781 129.615 82.0048 129.628 82.0581C129.655 82.1114 129.668 82.1714 129.668 82.2381C129.668 82.6114 129.662 82.9848 129.648 83.3581C129.648 83.7181 129.648 84.0848 129.648 84.4581V90.0581C129.648 91.0848 129.655 92.1181 129.668 93.1581C129.682 94.1848 129.688 95.2114 129.688 96.2381C129.688 96.4514 129.775 96.6048 129.948 96.6981C130.135 96.7781 130.315 96.8181 130.488 96.8181C130.635 96.8181 130.775 96.8114 130.908 96.7981C131.042 96.7848 131.175 96.7781 131.308 96.7781C131.375 96.7781 131.415 96.8181 131.428 96.8981C131.442 96.9648 131.448 97.0181 131.448 97.0581ZM140.343 94.4581C140.343 95.0581 140.209 95.5514 139.943 95.9381C139.676 96.3114 139.329 96.5981 138.903 96.7981C138.476 96.9981 138.009 97.1381 137.503 97.2181C136.996 97.2981 136.503 97.3381 136.023 97.3381C135.583 97.3381 135.143 97.2914 134.702 97.1981C134.276 97.1048 133.843 97.0381 133.403 96.9981C133.309 96.6381 133.216 96.2781 133.123 95.9181C133.043 95.5581 132.949 95.2048 132.843 94.8581C132.829 94.8181 132.796 94.7248 132.743 94.5781C132.703 94.4314 132.683 94.3514 132.683 94.3381C132.683 94.2314 132.716 94.1581 132.783 94.1181C132.849 94.0648 132.929 94.0381 133.023 94.0381C133.116 94.0381 133.183 94.0714 133.223 94.1381C133.303 94.2314 133.369 94.3581 133.423 94.5181C133.489 94.6781 133.549 94.8181 133.603 94.9381C133.709 95.1514 133.803 95.3181 133.883 95.4381C133.963 95.5448 134.089 95.6848 134.263 95.8581C134.783 96.4048 135.429 96.6781 136.203 96.6781C136.629 96.6781 137.016 96.6314 137.363 96.5381C137.723 96.4448 138.009 96.2714 138.223 96.0181C138.436 95.7514 138.543 95.3714 138.543 94.8781C138.543 94.4514 138.409 94.0981 138.143 93.8181C137.876 93.5248 137.529 93.2648 137.103 93.0381C136.689 92.8114 136.249 92.5914 135.783 92.3781C135.316 92.1648 134.869 91.9314 134.443 91.6781C134.029 91.4114 133.689 91.0914 133.423 90.7181C133.156 90.3448 133.023 89.8914 133.023 89.3581C133.023 88.7048 133.189 88.1714 133.523 87.7581C133.869 87.3448 134.309 87.0381 134.843 86.8381C135.376 86.6248 135.929 86.5181 136.503 86.5181C136.876 86.5181 137.209 86.5648 137.503 86.6581C137.809 86.7514 138.129 86.8581 138.463 86.9781C138.569 87.0181 138.676 87.0448 138.783 87.0581C138.889 87.0714 138.996 87.0781 139.103 87.0781C139.169 87.0781 139.229 87.0781 139.283 87.0781C139.336 87.0781 139.389 87.0714 139.443 87.0581C139.483 87.2981 139.516 87.5448 139.543 87.7981C139.583 88.0381 139.616 88.2848 139.643 88.5381C139.656 88.6314 139.669 88.7448 139.683 88.8781C139.709 88.9981 139.723 89.1114 139.723 89.2181C139.723 89.3114 139.703 89.4114 139.663 89.5181C139.623 89.6114 139.543 89.6581 139.423 89.6581C139.329 89.6581 139.249 89.6514 139.183 89.6381C139.129 89.6114 139.083 89.5514 139.043 89.4581C138.976 89.3248 138.916 89.1848 138.863 89.0381C138.823 88.8781 138.776 88.7314 138.723 88.5981C138.549 88.1314 138.249 87.7581 137.823 87.4781C137.396 87.1848 136.936 87.0381 136.443 87.0381C135.816 87.0381 135.343 87.2248 135.023 87.5981C134.703 87.9581 134.543 88.4448 134.543 89.0581C134.543 89.2714 134.596 89.4781 134.702 89.6781C134.823 89.8781 134.956 90.0514 135.103 90.1981C135.383 90.4648 135.709 90.6714 136.083 90.8181C136.469 90.9648 136.836 91.1114 137.183 91.2581C137.636 91.4581 138.103 91.6981 138.583 91.9781C139.076 92.2581 139.489 92.5981 139.823 92.9981C140.169 93.3981 140.343 93.8848 140.343 94.4581Z" fill="white"/>
</g>
<defs>
<filter id="filter0_b_50_768" x="-112.446" y="-81.4948" width="451.589" height="358.622" filterUnits="userSpaceOnUse" color-interpolation-filters="sRGB">
<feFlood flood-opacity="0" result="BackgroundImageFix"/>
<feGaussianBlur in="BackgroundImageFix" stdDeviation="21"/>
<feComposite in2="SourceAlpha" operator="in" result="effect1_backgroundBlur_50_768"/>
<feBlend mode="normal" in="SourceGraphic" in2="effect1_backgroundBlur_50_768" result="shape"/>
</filter>
<linearGradient id="paint0_linear_50_768" x1="-23.5332" y1="-42.759" x2="335.331" y2="202.188" gradientUnits="userSpaceOnUse">
<stop stop-color="white" stop-opacity="0.47"/>
<stop offset="1" stop-color="white" stop-opacity="0"/>
</linearGradient>
<radialGradient id="paint1_radial_50_768" cx="0" cy="0" r="1" gradientUnits="userSpaceOnUse" gradientTransform="translate(-23.5332 -42.759) rotate(34.3723) scale(443.3 700.205)">
<stop stop-color="white" stop-opacity="0.7"/>
<stop offset="1" stop-color="white" stop-opacity="0"/>
</radialGradient>
<clipPath id="clip0_50_768">
<rect width="181" height="181" fill="white" transform="matrix(-0.969881 -0.243579 -0.243579 0.969881 219.637 44.0878)"/>
</clipPath>
</defs>
</svg>
