<svg width="216" height="216" viewBox="0 0 216 216" fill="none" xmlns="http://www.w3.org/2000/svg">
<mask id="mask0_50_771" style="mask-type:alpha" maskUnits="userSpaceOnUse" x="0" y="0" width="216" height="216">
<g clip-path="url(#clip0_50_771)">
<path d="M60.5851 60.4632C46.9502 97.5102 68.9838 135.799 90.1937 143.608C111.403 151.417 153.05 136.402 166.645 99.4915C169.207 92.5284 170.373 85.1288 170.075 77.7152C169.778 70.3016 168.023 63.0192 164.911 56.2837C161.799 49.5483 157.391 43.4918 151.938 38.4599C146.486 33.4281 140.095 29.5195 133.132 26.9573C126.169 24.3951 118.77 23.2294 111.356 23.5269C103.942 23.8244 96.66 25.5792 89.9246 28.6911C83.1892 31.8031 77.1326 36.2111 72.1008 41.6637C67.0689 47.1163 63.1603 53.5066 60.5981 60.4697L60.5851 60.4632Z" fill="#070707" stroke="#070707" stroke-width="11.3125" stroke-miterlimit="10"/>
<path d="M110.584 127.057C122.899 125.018 136.982 117.177 145.396 103.675L110.584 127.057ZM51.072 182.088C63.3871 180.049 75.9406 172.976 84.3533 159.478L51.072 182.088Z" fill="#070707"/>
<path d="M110.584 127.057C122.899 125.018 136.982 117.177 145.396 103.675M51.0721 182.088C63.3871 180.049 75.9406 172.976 84.3533 159.478" stroke="#070707" stroke-width="11.3125" stroke-miterlimit="10" stroke-linecap="round"/>
<path d="M95.498 145.554L94.96 163.381L73.7494 155.576L84.8945 141.652L95.498 145.554Z" fill="#070707" stroke="#070707" stroke-width="11.3125" stroke-linecap="round" stroke-linejoin="round"/>
</g>
</mask>
<g mask="url(#mask0_50_771)">
<g filter="url(#filter0_b_50_771)">
<rect x="-30.7461" y="-40.4976" width="334" height="206" rx="20" transform="rotate(12.2012 -30.7461 -40.4976)" fill="url(#paint0_linear_50_771)"/>
<rect x="-31.1291" y="-41.0919" width="335" height="207" rx="20.5" transform="rotate(12.2012 -31.1291 -41.0919)" stroke="url(#paint1_radial_50_771)"/>
</g>
<path d="M103.075 82.66C103.075 82.7133 103.055 82.78 103.015 82.86C102.988 82.94 102.941 82.98 102.875 82.98C102.755 82.98 102.635 82.9733 102.515 82.96C102.408 82.9467 102.295 82.94 102.175 82.94C101.975 82.94 101.815 83.02 101.695 83.18C101.575 83.34 101.481 83.5333 101.415 83.76C101.361 83.9733 101.315 84.16 101.275 84.32C100.795 86.4267 100.341 88.5467 99.9146 90.68C99.4879 92.8133 99.0279 94.9333 98.5346 97.04H96.7946C96.2879 95.2133 95.7413 93.4067 95.1546 91.62C94.5679 89.8333 94.0013 88.0333 93.4546 86.22C92.8546 88.0333 92.2479 89.8467 91.6346 91.66C91.0346 93.46 90.4146 95.2533 89.7746 97.04H88.2146C88.0679 96.4533 87.9346 95.8667 87.8146 95.28C87.7079 94.6933 87.5879 94.1133 87.4546 93.54L86.0546 86.88C85.9479 86.36 85.8413 85.8333 85.7346 85.3C85.6413 84.7533 85.5213 84.2267 85.3746 83.72C85.2679 83.32 85.0879 83.0933 84.8346 83.04C84.5946 82.9867 84.3013 82.96 83.9546 82.96C83.8346 82.96 83.7613 82.92 83.7346 82.84C83.7213 82.76 83.7146 82.6733 83.7146 82.58C83.7146 82.42 83.7813 82.34 83.9146 82.34C84.0613 82.34 84.2079 82.3467 84.3546 82.36C84.5146 82.3733 84.6679 82.3867 84.8146 82.4C85.3213 82.4133 85.8279 82.42 86.3346 82.42C86.8413 82.42 87.3479 82.42 87.8546 82.42C88.0813 82.42 88.3079 82.4133 88.5346 82.4C88.7613 82.3733 88.9813 82.36 89.1946 82.36C89.2746 82.36 89.3346 82.3933 89.3746 82.46C89.4146 82.5267 89.4346 82.5933 89.4346 82.66C89.4346 82.8333 89.3546 82.92 89.1946 82.92C89.0346 82.92 88.8679 82.9133 88.6946 82.9C88.5346 82.8867 88.3746 82.88 88.2146 82.88C88.0413 82.88 87.8879 82.92 87.7546 83C87.6346 83.0667 87.5746 83.2 87.5746 83.4C87.5746 83.4667 87.5746 83.5333 87.5746 83.6C87.5879 83.6667 87.6013 83.7333 87.6146 83.8C87.7346 84.4267 87.8479 85.0667 87.9546 85.72C88.0613 86.36 88.1746 86.9933 88.2946 87.62C88.5213 88.8333 88.7479 90.0467 88.9746 91.26C89.2146 92.4733 89.4479 93.6867 89.6746 94.9C90.1679 93.4733 90.6479 92.0467 91.1146 90.62C91.5946 89.1933 92.0679 87.7667 92.5346 86.34C92.7213 85.7667 92.8946 85.1933 93.0546 84.62C93.2146 84.0333 93.3946 83.46 93.5946 82.9C93.6479 82.7667 93.7013 82.6733 93.7546 82.62C93.8079 82.5533 93.9079 82.52 94.0546 82.52C94.2946 82.52 94.4613 82.62 94.5546 82.82C94.6479 83.02 94.7213 83.24 94.7746 83.48C94.8279 83.72 94.8813 83.9467 94.9346 84.16C95.0679 84.6133 95.1946 85.06 95.3146 85.5C95.4346 85.94 95.5613 86.3867 95.6946 86.84C96.0946 88.2133 96.5146 89.5867 96.9546 90.96C97.3946 92.32 97.8079 93.6933 98.1946 95.08C98.4479 94 98.6813 92.92 98.8946 91.84C99.1213 90.7467 99.3413 89.6533 99.5546 88.56C99.7013 87.8667 99.8279 87.1733 99.9346 86.48C100.055 85.7733 100.168 85.0733 100.275 84.38C100.301 84.1933 100.321 84.0067 100.335 83.82C100.361 83.6333 100.375 83.4467 100.375 83.26C100.375 83.0733 100.288 82.96 100.115 82.92C99.9546 82.8667 99.8013 82.84 99.6546 82.84C99.4813 82.84 99.3079 82.8467 99.1346 82.86C98.9613 82.8733 98.7879 82.88 98.6146 82.88C98.5213 82.88 98.4613 82.86 98.4346 82.82C98.4213 82.7667 98.4146 82.7133 98.4146 82.66C98.4146 82.4733 98.4879 82.38 98.6346 82.38C99.0613 82.38 99.4879 82.3933 99.9146 82.42C100.341 82.4333 100.768 82.44 101.195 82.44C101.488 82.44 101.775 82.4333 102.055 82.42C102.335 82.3933 102.621 82.38 102.915 82.38C102.981 82.38 103.021 82.4133 103.035 82.48C103.061 82.5467 103.075 82.6067 103.075 82.66ZM112.895 91.72C112.895 91.1467 112.848 90.5733 112.755 90C112.675 89.4133 112.515 88.8733 112.275 88.38C112.048 87.8867 111.715 87.4933 111.275 87.2C110.835 86.8933 110.261 86.74 109.555 86.74C108.888 86.74 108.341 86.9 107.915 87.22C107.501 87.54 107.175 87.9533 106.935 88.46C106.708 88.9667 106.548 89.5133 106.455 90.1C106.375 90.6867 106.335 91.24 106.335 91.76C106.335 92.3333 106.375 92.9067 106.455 93.48C106.548 94.0533 106.715 94.5733 106.955 95.04C107.195 95.4933 107.535 95.86 107.975 96.14C108.428 96.42 109.008 96.56 109.715 96.56C110.408 96.56 110.961 96.4133 111.375 96.12C111.801 95.8267 112.121 95.44 112.335 94.96C112.561 94.48 112.708 93.96 112.775 93.4C112.855 92.8267 112.895 92.2667 112.895 91.72ZM114.955 91.78C114.955 92.78 114.715 93.68 114.235 94.48C113.768 95.28 113.128 95.9133 112.315 96.38C111.515 96.8467 110.615 97.08 109.615 97.08C108.641 97.08 107.761 96.8467 106.975 96.38C106.188 95.9 105.561 95.2667 105.095 94.48C104.628 93.68 104.395 92.7933 104.395 91.82C104.395 90.82 104.621 89.9 105.075 89.06C105.528 88.2067 106.148 87.52 106.935 87C107.735 86.48 108.655 86.22 109.695 86.22C110.815 86.22 111.768 86.46 112.555 86.94C113.341 87.4067 113.935 88.06 114.335 88.9C114.748 89.7267 114.955 90.6867 114.955 91.78ZM124.577 88.1C124.577 88.2333 124.524 88.36 124.417 88.48C124.324 88.5867 124.204 88.64 124.057 88.64C123.857 88.64 123.71 88.5733 123.617 88.44C123.537 88.3067 123.464 88.1533 123.397 87.98C123.344 87.8067 123.257 87.6533 123.137 87.52C123.017 87.3867 122.817 87.32 122.537 87.32C122.484 87.32 122.43 87.32 122.377 87.32C122.337 87.32 122.29 87.3267 122.237 87.34C122.01 87.38 121.764 87.52 121.497 87.76C121.23 88 120.97 88.2867 120.717 88.62C120.477 88.94 120.277 89.26 120.117 89.58C119.957 89.9 119.87 90.1667 119.857 90.38C119.844 90.5933 119.837 90.8067 119.837 91.02C119.837 91.22 119.837 91.42 119.837 91.62C119.837 92.34 119.837 93.06 119.837 93.78C119.85 94.5 119.857 95.2133 119.857 95.92C119.857 96.12 119.937 96.2667 120.097 96.36C120.27 96.44 120.444 96.48 120.617 96.48C120.75 96.48 120.884 96.4733 121.017 96.46C121.15 96.4467 121.284 96.44 121.417 96.44C121.484 96.44 121.53 96.4733 121.557 96.54C121.584 96.5933 121.597 96.6467 121.597 96.7C121.597 96.9133 121.49 97.02 121.277 97.02C120.877 97.02 120.477 97.0133 120.077 97C119.677 96.9733 119.277 96.96 118.877 96.96C118.464 96.96 118.044 96.9733 117.617 97C117.204 97.0267 116.784 97.04 116.357 97.04C116.304 97.04 116.264 97 116.237 96.92C116.224 96.84 116.217 96.7733 116.217 96.72C116.217 96.5867 116.27 96.5133 116.377 96.5C116.524 96.4733 116.677 96.4667 116.837 96.48C116.997 96.4933 117.144 96.5 117.277 96.5C117.477 96.5 117.637 96.46 117.757 96.38C117.89 96.2867 117.964 96.1333 117.977 95.92C118.004 95.4933 118.017 95.06 118.017 94.62C118.03 94.18 118.037 93.74 118.037 93.3V91.36C118.024 90.7867 118.017 90.22 118.017 89.66C118.03 89.0867 118.01 88.52 117.957 87.96C117.944 87.6933 117.87 87.5067 117.737 87.4C117.604 87.28 117.404 87.22 117.137 87.22C117.03 87.22 116.917 87.2333 116.797 87.26C116.69 87.2733 116.577 87.28 116.457 87.28C116.35 87.28 116.297 87.2 116.297 87.04C116.297 86.9467 116.344 86.88 116.437 86.84C116.57 86.8 116.71 86.7733 116.857 86.76C117.004 86.7333 117.144 86.7133 117.277 86.7C117.637 86.6333 117.997 86.5667 118.357 86.5C118.717 86.4333 119.077 86.3533 119.437 86.26C119.557 86.3 119.644 86.3733 119.697 86.48C119.724 86.5333 119.744 86.68 119.757 86.92C119.77 87.16 119.777 87.44 119.777 87.76C119.777 88.0667 119.777 88.36 119.777 88.64C119.777 88.9067 119.777 89.0933 119.777 89.2C120.07 88.7333 120.404 88.2667 120.777 87.8C121.15 87.3333 121.577 86.9467 122.057 86.64C122.537 86.3333 123.077 86.18 123.677 86.18C123.997 86.18 124.204 86.28 124.297 86.48C124.39 86.68 124.45 86.9133 124.477 87.18C124.504 87.3267 124.524 87.48 124.537 87.64C124.564 87.8 124.577 87.9533 124.577 88.1ZM136.584 96.7C136.584 96.7933 136.49 96.86 136.304 96.9C136.117 96.94 135.917 96.9667 135.704 96.98C135.504 96.9933 135.364 97 135.284 97C135.097 97 134.89 97 134.664 97C134.437 96.9867 134.23 96.9533 134.044 96.9C133.87 96.8467 133.724 96.7533 133.604 96.62C133.497 96.4867 133.404 96.3533 133.324 96.22C132.724 95.3 132.13 94.38 131.544 93.46C130.957 92.54 130.377 91.6133 129.804 90.68L128.644 91.54V96.02C128.644 96.34 128.804 96.5 129.124 96.5C129.244 96.5 129.364 96.5 129.484 96.5C129.604 96.4867 129.717 96.48 129.824 96.48C129.89 96.48 129.957 96.5 130.024 96.54C130.104 96.58 130.144 96.64 130.144 96.72C130.144 96.88 130.07 96.96 129.924 96.96C129.55 96.96 129.184 96.96 128.824 96.96C128.464 96.9467 128.097 96.94 127.724 96.94C127.47 96.94 127.204 96.9467 126.924 96.96C126.657 96.96 126.39 96.9667 126.124 96.98C126.044 96.98 125.957 96.9867 125.864 97C125.784 97.0133 125.697 97.02 125.604 97.02C125.55 97.02 125.504 96.9933 125.464 96.94C125.437 96.8733 125.424 96.8133 125.424 96.76C125.424 96.6667 125.464 96.6067 125.544 96.58C125.624 96.5533 125.697 96.54 125.764 96.54C125.83 96.54 125.904 96.5467 125.984 96.56C126.064 96.56 126.137 96.56 126.204 96.56C126.417 96.56 126.584 96.54 126.704 96.5C126.824 96.4467 126.884 96.3 126.884 96.06V83.18C126.884 82.8733 126.83 82.6667 126.724 82.56C126.617 82.4533 126.404 82.4 126.084 82.4C125.977 82.4 125.87 82.4133 125.764 82.44C125.657 82.4533 125.55 82.46 125.444 82.46C125.31 82.46 125.244 82.3933 125.244 82.26C125.244 82.1667 125.297 82.1067 125.404 82.08C125.657 82.0133 125.917 81.9667 126.184 81.94C126.464 81.9 126.73 81.86 126.984 81.82C127.104 81.7933 127.27 81.76 127.484 81.72C127.697 81.6667 127.904 81.62 128.104 81.58C128.317 81.54 128.464 81.52 128.544 81.52C128.61 81.52 128.644 81.56 128.644 81.64L128.624 90.94C129.304 90.4333 129.957 89.9 130.584 89.34C131.21 88.78 131.83 88.2133 132.444 87.64C132.67 87.44 132.884 87.24 133.084 87.04C133.284 86.8267 133.47 86.6067 133.644 86.38C133.724 86.2867 133.837 86.24 133.984 86.24C134.117 86.24 134.244 86.2467 134.364 86.26C134.497 86.2733 134.63 86.28 134.764 86.28C134.924 86.28 135.084 86.2733 135.244 86.26C135.417 86.2467 135.584 86.24 135.744 86.24C135.944 86.24 136.044 86.3467 136.044 86.56C136.044 86.6667 135.964 86.72 135.804 86.72C135.59 86.7333 135.384 86.7533 135.184 86.78C134.984 86.8067 134.79 86.8933 134.604 87.04C134.004 87.4667 133.417 87.92 132.844 88.4C132.27 88.88 131.69 89.3533 131.104 89.82C131.344 90.2333 131.597 90.64 131.864 91.04C132.13 91.4267 132.39 91.8133 132.644 92.2C133.004 92.7333 133.364 93.2667 133.724 93.8C134.097 94.32 134.47 94.84 134.844 95.36C135.03 95.6133 135.264 95.8667 135.544 96.12C135.837 96.36 136.144 96.4933 136.464 96.52C136.544 96.5333 136.584 96.5933 136.584 96.7ZM144.88 94.14C144.88 94.74 144.746 95.2333 144.48 95.62C144.213 95.9933 143.866 96.28 143.44 96.48C143.013 96.68 142.546 96.82 142.04 96.9C141.533 96.98 141.04 97.02 140.56 97.02C140.12 97.02 139.68 96.9733 139.24 96.88C138.813 96.7867 138.38 96.72 137.94 96.68C137.846 96.32 137.753 95.96 137.66 95.6C137.58 95.24 137.486 94.8867 137.38 94.54C137.366 94.5 137.333 94.4067 137.28 94.26C137.24 94.1133 137.22 94.0333 137.22 94.02C137.22 93.9133 137.253 93.84 137.32 93.8C137.386 93.7467 137.466 93.72 137.56 93.72C137.653 93.72 137.72 93.7533 137.76 93.82C137.84 93.9133 137.906 94.04 137.96 94.2C138.026 94.36 138.086 94.5 138.14 94.62C138.246 94.8333 138.34 95 138.42 95.12C138.5 95.2267 138.626 95.3667 138.8 95.54C139.32 96.0867 139.966 96.36 140.74 96.36C141.166 96.36 141.553 96.3133 141.9 96.22C142.26 96.1267 142.546 95.9533 142.76 95.7C142.973 95.4333 143.08 95.0533 143.08 94.56C143.08 94.1333 142.946 93.78 142.68 93.5C142.413 93.2067 142.066 92.9467 141.64 92.72C141.226 92.4933 140.786 92.2733 140.32 92.06C139.853 91.8467 139.406 91.6133 138.98 91.36C138.566 91.0933 138.226 90.7733 137.96 90.4C137.693 90.0267 137.56 89.5733 137.56 89.04C137.56 88.3867 137.726 87.8533 138.06 87.44C138.406 87.0267 138.846 86.72 139.38 86.52C139.913 86.3067 140.466 86.2 141.04 86.2C141.413 86.2 141.746 86.2467 142.04 86.34C142.346 86.4333 142.666 86.54 143 86.66C143.106 86.7 143.213 86.7267 143.32 86.74C143.426 86.7533 143.533 86.76 143.64 86.76C143.706 86.76 143.766 86.76 143.82 86.76C143.873 86.76 143.926 86.7533 143.98 86.74C144.02 86.98 144.053 87.2267 144.08 87.48C144.12 87.72 144.153 87.9667 144.18 88.22C144.193 88.3133 144.206 88.4267 144.22 88.56C144.246 88.68 144.26 88.7933 144.26 88.9C144.26 88.9933 144.24 89.0933 144.2 89.2C144.16 89.2933 144.08 89.34 143.96 89.34C143.866 89.34 143.786 89.3333 143.72 89.32C143.666 89.2933 143.62 89.2333 143.58 89.14C143.513 89.0067 143.453 88.8667 143.4 88.72C143.36 88.56 143.313 88.4133 143.26 88.28C143.086 87.8133 142.786 87.44 142.36 87.16C141.933 86.8667 141.473 86.72 140.98 86.72C140.353 86.72 139.88 86.9067 139.56 87.28C139.24 87.64 139.08 88.1267 139.08 88.74C139.08 88.9533 139.133 89.16 139.24 89.36C139.36 89.56 139.493 89.7333 139.64 89.88C139.92 90.1467 140.246 90.3533 140.62 90.5C141.006 90.6467 141.373 90.7933 141.72 90.94C142.173 91.14 142.64 91.38 143.12 91.66C143.613 91.94 144.026 92.28 144.36 92.68C144.706 93.08 144.88 93.5667 144.88 94.14Z" fill="white"/>
</g>
<defs>
<filter id="filter0_b_50_771" x="-113.513" y="-79.7268" width="448.451" height="350.395" filterUnits="userSpaceOnUse" color-interpolation-filters="sRGB">
<feFlood flood-opacity="0" result="BackgroundImageFix"/>
<feGaussianBlur in="BackgroundImageFix" stdDeviation="21"/>
<feComposite in2="SourceAlpha" operator="in" result="effect1_backgroundBlur_50_771"/>
<feBlend mode="normal" in="SourceGraphic" in2="effect1_backgroundBlur_50_771" result="shape"/>
</filter>
<linearGradient id="paint0_linear_50_771" x1="-30.7461" y1="-40.4976" x2="328.118" y2="204.449" gradientUnits="userSpaceOnUse">
<stop stop-color="white" stop-opacity="0.47"/>
<stop offset="1" stop-color="white" stop-opacity="0"/>
</linearGradient>
<radialGradient id="paint1_radial_50_771" cx="0" cy="0" r="1" gradientUnits="userSpaceOnUse" gradientTransform="translate(-30.7461 -40.4976) rotate(34.3723) scale(443.3 700.205)">
<stop stop-color="white" stop-opacity="0.7"/>
<stop offset="1" stop-color="white" stop-opacity="0"/>
</radialGradient>
<clipPath id="clip0_50_771">
<rect width="181" height="181" fill="white" transform="matrix(-0.977411 -0.211345 -0.211345 0.977411 215.165 38.2535)"/>
</clipPath>
</defs>
</svg>
