<svg width="25" height="26" viewBox="0 0 25 26" fill="none" xmlns="http://www.w3.org/2000/svg">
<path d="M12.1992 0.799988C5.56922 0.799988 0.199219 6.53523 0.199219 13.6162C0.199219 19.2873 3.63422 24.0774 8.40422 25.7755C9.00422 25.8876 9.22922 25.5032 9.22922 25.1667C9.22922 24.8624 9.21422 23.8531 9.21422 22.7797C6.19922 23.3725 5.41922 21.9947 5.17922 21.2738C5.04422 20.9054 4.45922 19.7679 3.94922 19.4635C3.52922 19.2232 2.92922 18.6305 3.93422 18.6145C4.87922 18.5984 5.55422 19.5436 5.77922 19.9281C6.85922 21.8666 8.58422 21.3219 9.27422 20.9855C9.37922 20.1524 9.69422 19.5917 10.0392 19.2713C7.36922 18.9509 4.57922 17.8455 4.57922 12.9433C4.57922 11.5496 5.04422 10.3961 5.80922 9.49896C5.68922 9.17856 5.26922 7.8649 5.92922 6.10268C5.92922 6.10268 6.93422 5.76626 9.22922 7.41634C10.1892 7.12797 11.2092 6.98379 12.2292 6.98379C13.2492 6.98379 14.2692 7.12797 15.2292 7.41634C17.5242 5.75024 18.5292 6.10268 18.5292 6.10268C19.1892 7.8649 18.7692 9.17856 18.6492 9.49896C19.4142 10.3961 19.8792 11.5335 19.8792 12.9433C19.8792 17.8615 17.0742 18.9509 14.4042 19.2713C14.8392 19.6718 15.2142 20.4408 15.2142 21.6423C15.2142 23.3565 15.1992 24.7342 15.1992 25.1667C15.1992 25.5032 15.4242 25.9037 16.0242 25.7755C18.4068 24.9172 20.4772 23.2822 21.9438 21.1008C23.4104 18.9195 24.1993 16.3016 24.1992 13.6162C24.1992 6.53523 18.8292 0.799988 12.1992 0.799988Z" fill="white"/>
</svg>
