<svg width="25" height="27" viewBox="0 0 25 27" fill="none" xmlns="http://www.w3.org/2000/svg">
<path d="M24.0292 25.2973L15.4958 11.8865L23.916 2.62389C24.1065 2.40923 24.2046 2.12815 24.1892 1.84161C24.1738 1.55506 24.046 1.28614 23.8337 1.09314C23.6213 0.900148 23.3414 0.798636 23.0547 0.810615C22.768 0.822594 22.4976 0.947098 22.302 1.15713L14.2812 9.97948L8.76182 1.30572C8.66339 1.1508 8.52746 1.02323 8.36662 0.934828C8.20578 0.846424 8.02522 0.800045 7.84169 0.799988H1.29854C1.10301 0.799893 0.911049 0.85237 0.742761 0.951925C0.574474 1.05148 0.436049 1.19445 0.34198 1.36586C0.247911 1.53728 0.20166 1.73083 0.208068 1.92626C0.214477 2.12168 0.27331 2.31179 0.378407 2.47667L8.91176 15.886L0.491549 25.1555C0.39322 25.2611 0.316833 25.3852 0.266816 25.5206C0.216799 25.6559 0.194145 25.7999 0.200169 25.9441C0.206193 26.0883 0.240775 26.2298 0.30191 26.3605C0.363045 26.4913 0.449516 26.6085 0.556313 26.7056C0.66311 26.8026 0.788109 26.8775 0.924064 26.9259C1.06002 26.9743 1.20423 26.9952 1.34833 26.9875C1.49243 26.9797 1.63356 26.9435 1.76354 26.8808C1.89352 26.8181 2.00976 26.7302 2.10553 26.6222L10.1263 17.7999L15.6458 26.4737C15.745 26.6273 15.8813 26.7535 16.042 26.8407C16.2028 26.9279 16.383 26.9733 16.5659 26.9726H23.109C23.3044 26.9725 23.4961 26.92 23.6642 26.8205C23.8322 26.721 23.9705 26.5782 24.0645 26.407C24.1586 26.2358 24.2049 26.0425 24.1987 25.8473C24.1924 25.6521 24.1339 25.4621 24.0292 25.2973ZM17.1643 24.7915L3.28466 2.98104H7.23781L21.1229 24.7915H17.1643Z" fill="white"/>
</svg>
