<svg width="14" height="13" viewBox="0 0 14 13" fill="none" xmlns="http://www.w3.org/2000/svg">
<g clip-path="url(#clip0_74_716)">
<path d="M9.26219 8.69344C9.33883 8.43331 9.30864 8.19331 9.18167 8.01602C9.0667 7.85267 8.87122 7.75783 8.63548 7.74583L4.16567 7.68931C4.15187 7.68961 4.13824 7.68622 4.1262 7.67948C4.11415 7.67274 4.10412 7.66291 4.09716 7.65099C4.08285 7.62673 4.07854 7.59785 4.08516 7.57047C4.09407 7.54885 4.10874 7.53009 4.12758 7.51623C4.14642 7.50238 4.1687 7.49396 4.192 7.49189L8.70012 7.43344C9.23432 7.40712 9.81496 6.97589 10.0186 6.44557L10.2744 5.77435C10.2869 5.7472 10.2898 5.71662 10.2826 5.68764C10.1377 5.03612 9.77479 4.45357 9.25383 4.03637C8.73287 3.61917 8.0851 3.3923 7.41767 3.39331C6.80426 3.39333 6.20626 3.58546 5.70763 3.94273C5.209 4.30001 4.83479 4.80448 4.63754 5.38531C4.37159 5.18788 4.0416 5.09665 3.712 5.12944C3.40956 5.15995 3.12696 5.29402 2.91202 5.50895C2.69708 5.72389 2.56302 6.00649 2.53251 6.30893C2.51858 6.46802 2.52864 6.62557 2.56464 6.7688C2.07604 6.78311 1.61228 6.98742 1.27196 7.3383C0.931633 7.68918 0.741576 8.15895 0.742189 8.64777C0.742189 8.73641 0.750318 8.82738 0.760383 8.91989C0.764028 8.94042 0.774646 8.95907 0.790442 8.97268C0.806239 8.98629 0.826248 8.99403 0.847092 8.9946H9.09496C9.11866 8.99398 9.1416 8.98611 9.1607 8.97206C9.1798 8.95802 9.19414 8.93846 9.2018 8.91602L9.26219 8.69344ZM10.6859 5.82273C10.6457 5.82273 10.6031 5.82273 10.5628 5.82893C10.5326 5.82893 10.5083 5.85099 10.4963 5.87925L10.3228 6.48622C10.2462 6.74635 10.2744 6.98635 10.4033 7.16557C10.5183 7.32893 10.7157 7.42144 10.9519 7.43383L11.9014 7.49228C11.9321 7.49228 11.9556 7.50441 11.9719 7.52867C11.985 7.55265 11.9886 7.58072 11.9819 7.60725C11.9743 7.62947 11.9602 7.64895 11.9416 7.66326C11.9229 7.67758 11.9005 7.6861 11.877 7.68777L10.8849 7.74622C10.3464 7.7706 9.77006 8.20377 9.56645 8.73409L9.496 8.91951C9.47974 8.95589 9.50606 8.99228 9.54632 8.99228H12.9516C12.971 8.99191 12.9898 8.98547 13.0053 8.97388C13.0209 8.96228 13.0324 8.94611 13.0383 8.92764C13.0968 8.71589 13.1289 8.49409 13.1289 8.26647C13.1289 6.92364 12.0323 5.82699 10.6852 5.82699L10.6859 5.82273Z" fill="white"/>
</g>
<defs>
<clipPath id="clip0_74_716">
<rect width="12.3871" height="12.3871" fill="white" transform="translate(0.742188)"/>
</clipPath>
</defs>
</svg>
