<svg width="22" height="24" viewBox="0 0 22 24" fill="none" xmlns="http://www.w3.org/2000/svg">
<g clip-path="url(#clip0_335_162)">
<path d="M20.4037 5.31019L11.587 0.219937C11.0791 -0.0733125 10.248 -0.0733125 9.74006 0.219937L0.923484 5.31019C0.415547 5.60344 0 6.32325 0 6.90975V17.0903C0.0395156 17.7733 0.388406 18.339 0.923438 18.6898L9.74016 23.78C10.248 24.0733 11.0792 24.0733 11.5871 23.78L20.4037 18.6898C20.9779 18.308 21.3047 17.7332 21.3272 17.0903V6.90975C21.3066 6.29264 20.9371 5.67023 20.4038 5.31019M3.55453 12C3.51277 5.05833 12.8105 1.99317 16.82 8.44327L13.7434 10.2236C11.8861 7.15172 7.27458 8.25014 7.10906 12C7.15875 15.4561 11.6913 17.0615 13.7436 13.7762L16.8202 15.5565C13.2866 21.6907 3.73266 19.4837 3.55453 12ZM17.7727 12.3949H16.9828V13.1849H16.193V12.3949H15.403V11.6051H16.193V10.8152H16.9828V11.6051H17.7727V12.3949ZM20.7348 12.3949H19.9448V13.1849H19.155V12.3949H18.3652V11.6051H19.1551V10.8152H19.9449V11.6051H20.7348V12.3949Z" fill="white"/>
</g>
<defs>
<clipPath id="clip0_335_162">
<rect width="21.33" height="24" fill="white"/>
</clipPath>
</defs>
</svg>
