<svg width="13" height="13" viewBox="0 0 13 13" fill="none" xmlns="http://www.w3.org/2000/svg">
<path d="M11.87 5.29034C11.8391 5.26969 11.581 5.0684 11.0236 5.0684C10.8791 5.0684 10.7345 5.08389 10.59 5.10969C10.4816 4.38711 9.87777 4.02066 9.85196 4.00518L9.70228 3.91744L9.60938 4.05679C9.48551 4.2426 9.38744 4.45421 9.34615 4.67098C9.24293 5.08389 9.30486 5.47615 9.51648 5.81163C9.26357 5.95615 8.85067 5.99227 8.76293 5.99227H1.96551C1.79002 5.99227 1.64551 6.13679 1.64551 6.31744C1.64551 6.91098 1.73841 7.50453 1.94486 8.06195C2.17712 8.67615 2.52809 9.13034 2.97712 9.40905C3.48293 9.71873 4.3139 9.89421 5.25841 9.89421C5.66615 9.89421 6.08938 9.85808 6.50744 9.78066C7.08551 9.67744 7.64293 9.47615 8.1539 9.18195C8.57708 8.93996 8.95585 8.62752 9.2739 8.25808C9.81583 7.65421 10.1358 6.96776 10.3681 6.37421H10.4662C11.0545 6.37421 11.421 6.13679 11.6223 5.9355C11.7565 5.81163 11.8545 5.66195 11.9268 5.48647L11.9681 5.3626L11.87 5.29034ZM2.60035 5.80131H3.50873C3.55002 5.80131 3.59131 5.76518 3.59131 5.71873V4.90324C3.59131 4.86195 3.55519 4.82066 3.50873 4.82066H2.60035C2.55389 4.82066 2.51777 4.85679 2.51777 4.90324V5.71873C2.52293 5.76518 2.55389 5.80131 2.60035 5.80131ZM3.85454 5.80131H4.76293C4.80422 5.80131 4.84551 5.76518 4.84551 5.71873V4.90324C4.84551 4.86195 4.80938 4.82066 4.76293 4.82066H3.85454C3.80809 4.82066 3.77196 4.85679 3.77196 4.90324V5.71873C3.77712 5.76518 3.80809 5.80131 3.85454 5.80131ZM5.12938 5.80131H6.03261C6.08422 5.80131 6.12035 5.76518 6.12035 5.71873V4.90324C6.12035 4.86195 6.08938 4.82066 6.03261 4.82066H5.12938C5.08809 4.82066 5.05196 4.85679 5.05196 4.90324V5.71873C5.05196 5.76518 5.08293 5.80131 5.12938 5.80131ZM6.38873 5.80131H7.30228C7.34357 5.80131 7.3797 5.76518 7.3797 5.71873V4.90324C7.3797 4.86195 7.34873 4.82066 7.30228 4.82066H6.38873C6.34744 4.82066 6.31131 4.85679 6.31131 4.90324V5.71873C6.31131 5.76518 6.34744 5.80131 6.38873 5.80131ZM3.85454 4.64518H4.76293C4.80422 4.64518 4.84551 4.59873 4.84551 4.55227V3.74195C4.84551 3.6955 4.80938 3.65937 4.76293 3.65937H3.85454C3.80809 3.65937 3.77196 3.69034 3.77196 3.74195V4.55227C3.77712 4.59873 3.80809 4.64518 3.85454 4.64518ZM5.12938 4.64518H6.03261C6.08422 4.64518 6.12035 4.59873 6.12035 4.55227V3.74195C6.12035 3.6955 6.08938 3.65937 6.03261 3.65937H5.12938C5.08809 3.65937 5.05196 3.69034 5.05196 3.74195V4.55227C5.05196 4.59873 5.08293 4.64518 5.12938 4.64518ZM6.38873 4.64518H7.30228C7.34357 4.64518 7.3797 4.59873 7.3797 4.55227V3.74195C7.3797 3.6955 7.34357 3.65937 7.30228 3.65937H6.38873C6.34744 3.65937 6.31131 3.69034 6.31131 3.74195V4.55227C6.31131 4.59873 6.34744 4.64518 6.38873 4.64518ZM6.38873 3.4684H7.30228C7.34357 3.4684 7.3797 3.43227 7.3797 3.38582V2.58066C7.3797 2.52905 7.34357 2.49292 7.30228 2.49292H6.38873C6.34744 2.49292 6.31131 2.52389 6.31131 2.58066V3.38582C6.31131 3.42711 6.34744 3.4684 6.38873 3.4684ZM7.65841 5.80131H8.5668C8.61325 5.80131 8.64938 5.76518 8.64938 5.71873V4.90324C8.64938 4.86195 8.61325 4.82066 8.5668 4.82066H7.65841C7.61712 4.82066 7.58099 4.85679 7.58099 4.90324V5.71873C7.58099 5.76518 7.61712 5.80131 7.65841 5.80131Z" fill="white"/>
</svg>
