<svg width="24" height="24" viewBox="0 0 24 24" fill="none" xmlns="http://www.w3.org/2000/svg">
<g clip-path="url(#clip0_335_166)">
<path d="M19.4549 8.369C18.9169 7.621 17.6769 6.084 15.7739 3.8C15.1483 3.04961 14.5203 2.30127 13.8899 1.555L13.4019 0.979L13.1949 0.734L13.0819 0.601L13.0599 0.569L13.0499 0.564L12.5699 0L11.9609 0.488C10.4017 1.7393 9.14368 3.32505 8.27987 5.128C7.77803 6.12966 7.42659 7.19983 7.23687 8.304C7.18888 8.54868 7.14853 8.7948 7.11587 9.042C6.90557 9.02494 6.69481 9.01394 6.48387 9.009L6.42487 9.006C5.65531 8.97975 4.8863 9.07217 4.14487 9.28L3.82787 9.369L3.66487 9.655C2.8966 11.0041 2.46699 12.5194 2.41287 14.071C2.33849 16.0655 2.8922 18.033 3.99587 19.696C5.06762 21.3212 6.60955 22.5809 8.41587 23.307L8.65187 23.402L8.72287 23.427L8.72587 23.426C9.67045 23.768 10.6629 23.9597 11.6669 23.994C11.7809 23.998 11.8949 24 12.0089 24C13.276 24.0012 14.5307 23.749 15.6989 23.258L15.7069 23.262L16.0199 23.117C17.6075 22.3826 18.9651 21.2297 19.9469 19.782C20.9564 18.2887 21.5251 16.5414 21.5879 14.74C21.6629 12.579 20.9449 10.436 19.4549 8.369ZM12.3719 15.064C12.6999 16.308 12.6359 17.504 12.1809 18.622C11.0459 17.502 10.2139 16.27 9.70587 14.957C9.16287 13.553 8.83587 12.217 8.73187 10.982C9.21187 11.139 9.65387 11.348 10.0469 11.604C11.1789 12.341 11.9609 13.505 12.3719 15.064ZM12.5789 21.086C13.0609 21.454 13.5689 21.798 14.0919 22.114C13.3206 22.3243 12.5218 22.4164 11.7229 22.387C11.5984 22.3826 11.474 22.3752 11.3499 22.365C11.8003 21.9801 12.2116 21.5517 12.5779 21.086H12.5789ZM13.9259 14.655C13.4099 12.698 12.3989 11.218 10.9239 10.257C10.2489 9.8235 9.50786 9.50265 8.72987 9.307C8.75004 9.06824 8.77973 8.83039 8.81887 8.594C9.0049 7.63778 9.31064 6.7088 9.72887 5.829L9.73287 5.821C9.90987 5.463 10.1089 5.102 10.3429 4.716L10.4349 4.564L10.4319 4.563C10.9767 3.71204 11.6295 2.93524 12.3739 2.252L12.6619 2.593C13.3339 3.389 13.9659 4.141 14.5399 4.83C15.8309 6.379 17.5059 8.413 18.1519 9.31C19.4289 11.081 20.0449 12.889 19.9819 14.685C19.936 16.0404 19.545 17.3617 18.8459 18.5238C18.1468 19.6859 17.1628 20.6504 15.9869 21.326C15.0908 20.8764 14.2405 20.3409 13.4479 19.727C14.2379 18.152 14.3999 16.447 13.9269 14.655H13.9259ZM11.3509 20.052C10.7701 20.79 10.0623 21.4185 9.26087 21.908C9.17921 21.8788 9.09819 21.8478 9.01787 21.815L8.95287 21.789C7.46512 21.1756 6.19788 20.1263 5.31787 18.779C4.41245 17.4005 3.95878 15.7742 4.01987 14.126C4.05813 12.948 4.35949 11.7934 4.90187 10.747C5.21921 10.677 5.53921 10.6333 5.86187 10.616L5.94587 10.614C6.10921 10.6107 6.26854 10.6107 6.42387 10.614C6.65121 10.6253 6.87687 10.6487 7.10087 10.684C7.17387 12.197 7.54587 13.829 8.20587 15.536C8.84287 17.18 9.89987 18.698 11.3499 20.051L11.3509 20.052Z" fill="white"/>
</g>
<defs>
<clipPath id="clip0_335_166">
<rect width="24" height="24" fill="white"/>
</clipPath>
</defs>
</svg>
