<svg width="14" height="13" viewBox="0 0 14 13" fill="none" xmlns="http://www.w3.org/2000/svg">
<g clip-path="url(#clip0_74_708)">
<path d="M1.87028 5.2805C1.84602 5.2805 1.84034 5.26863 1.85221 5.25005L1.97918 5.08747C1.99105 5.06941 2.02099 5.05754 2.04524 5.05754H4.19853C4.22228 5.05754 4.22847 5.0756 4.2166 5.09367L4.11389 5.25005C4.10202 5.26863 4.07157 5.28618 4.0535 5.28618L1.87028 5.2805ZM0.959824 5.83534C0.935566 5.83534 0.929373 5.82347 0.94176 5.80541L1.06821 5.64231C1.08008 5.62425 1.11053 5.61237 1.13479 5.61237H3.88473C3.90899 5.61237 3.92086 5.63044 3.91466 5.6485L3.86666 5.79302C3.86047 5.81728 3.83673 5.82915 3.81247 5.82915L0.959824 5.83534ZM2.41944 6.39018C2.39518 6.39018 2.38899 6.37212 2.40137 6.35405L2.4855 6.20334C2.49737 6.18528 2.52163 6.16721 2.54589 6.16721H3.75208C3.77634 6.16721 3.78821 6.18528 3.78821 6.20954L3.77634 6.35405C3.77634 6.37831 3.75208 6.39637 3.73402 6.39637L2.41944 6.39018ZM8.67957 5.17212C8.29969 5.26863 8.04008 5.34089 7.6664 5.43741C7.57557 5.46115 7.56989 5.46734 7.49092 5.37702C7.40111 5.27431 7.33453 5.20825 7.20808 5.14786C6.82769 4.96102 6.45969 5.01521 6.11647 5.23818C5.70615 5.50347 5.49505 5.89573 5.50124 6.38399C5.50692 6.86657 5.83879 7.2645 6.31518 7.33108C6.7255 7.38528 7.06873 7.24076 7.34073 6.93367C7.39492 6.86657 7.44292 6.79431 7.50331 6.70967H6.33944C6.21299 6.70967 6.18253 6.63121 6.22486 6.52902C6.30331 6.34218 6.44782 6.02838 6.53247 5.87147C6.54566 5.8426 6.56689 5.81815 6.59362 5.80103C6.62035 5.78391 6.65144 5.77486 6.68318 5.77496H8.87828C8.8664 5.93805 8.8664 6.10063 8.84215 6.26373C8.7793 6.69301 8.60924 7.09951 8.34769 7.44567C7.91363 8.01857 7.3464 8.3747 6.62899 8.4707C6.03802 8.54915 5.48886 8.43457 5.00679 8.07328C4.56034 7.73521 4.30692 7.28876 4.24086 6.73392C4.1624 6.07638 4.35544 5.48541 4.75337 4.9667C5.18176 4.40618 5.74847 4.05005 6.44215 3.92412C7.00886 3.82089 7.55182 3.88799 8.04008 4.21883C8.36008 4.43044 8.58873 4.71947 8.73995 5.06941C8.77608 5.1236 8.75182 5.15405 8.67957 5.17263M10.676 8.50734C10.1268 8.49496 9.62615 8.33805 9.20395 7.97625C8.85291 7.68009 8.62144 7.26647 8.5526 6.81238C8.44421 6.13108 8.63105 5.52773 9.04137 4.99096C9.48163 4.41186 10.0122 4.11044 10.7301 3.9845C11.3454 3.87612 11.9245 3.93547 12.4489 4.2916C12.9252 4.61676 13.221 5.05754 13.2994 5.63612C13.4016 6.45057 13.1668 7.11379 12.6058 7.68102C12.2078 8.08515 11.7191 8.33805 11.158 8.45263C10.9954 8.4836 10.8329 8.48876 10.676 8.50734ZM12.1108 6.07121C12.1051 5.99225 12.1051 5.93186 12.0932 5.87147C11.9849 5.27431 11.4357 4.93728 10.8628 5.06941C10.3018 5.19586 9.93995 5.55199 9.80731 6.1187C9.69892 6.58941 9.92808 7.06579 10.3621 7.25934C10.694 7.40386 11.0254 7.38528 11.3454 7.22321C11.8218 6.97547 12.0809 6.58941 12.1113 6.0707L12.1108 6.07121Z" fill="white"/>
</g>
<defs>
<clipPath id="clip0_74_708">
<rect width="12.3871" height="12.3871" fill="white" transform="translate(0.935547)"/>
</clipPath>
</defs>
</svg>
