<svg width="14" height="13" viewBox="0 0 14 13" fill="none" xmlns="http://www.w3.org/2000/svg">
<g clip-path="url(#clip0_74_718)">
<path fill-rule="evenodd" clip-rule="evenodd" d="M3.49667 2.08523C3.38026 2.08347 3.26409 2.0963 3.15087 2.12343V2.14304H3.16997C3.23706 2.28084 3.35577 2.37014 3.43887 2.48884L3.63087 2.89194L3.65048 2.87284C3.76919 2.78923 3.8239 2.65504 3.82338 2.45014C3.77538 2.40007 3.76816 2.3371 3.72687 2.27723C3.67216 2.19775 3.56584 2.15233 3.49667 2.08523ZM12.7958 11.9417C12.8861 12.0083 12.947 12.1116 13.0647 12.1534V12.1337C13.0027 12.0553 12.9873 11.9469 12.9305 11.8648C12.8469 11.7823 12.7636 11.699 12.6807 11.615C12.4296 11.2909 12.1316 11.006 11.7965 10.7696C11.5344 10.5812 10.9454 10.3263 10.836 10.0207L10.8164 10.0011C11.0027 9.98046 11.2211 9.91284 11.3929 9.86691C11.682 9.78949 11.94 9.8091 12.2384 9.73272L12.642 9.6171V9.53968C12.4913 9.38484 12.3839 9.18046 12.2193 9.04059C11.7888 8.67414 11.3196 8.30768 10.836 8.00317C10.5676 7.83336 10.2363 7.72394 9.9519 7.57994C9.85642 7.53194 9.68867 7.50665 9.62571 7.42665C9.47603 7.23568 9.395 6.99465 9.2799 6.77323C9.03887 6.30872 8.80145 5.80136 8.58829 5.31259C8.44222 4.97968 8.34726 4.65142 8.16506 4.35259C7.2928 2.91775 6.35345 2.0522 4.899 1.2011C4.58932 1.02046 4.21667 0.948716 3.82338 0.855296L3.18906 0.817103C3.06003 0.762909 2.92584 0.60549 2.80506 0.528587C2.323 0.224071 1.08635 -0.438123 0.730223 0.432587C0.504675 0.982264 1.06674 1.51852 1.26803 1.79672C1.40893 1.99233 1.58958 2.21117 1.69074 2.43104C1.7568 2.57555 1.76816 2.72007 1.82493 2.87284C1.9648 3.24962 2.08609 3.65839 2.26674 4.00626C2.35861 4.18226 2.45926 4.36755 2.57435 4.52497C2.64558 4.62149 2.76635 4.66433 2.78545 4.81349C2.66674 4.97917 2.66055 5.23672 2.59397 5.4473C2.29358 6.39439 2.40661 7.57117 2.84377 8.27207C2.97745 8.48678 3.2928 8.9482 3.72687 8.77117C4.10674 8.61633 4.02209 8.13736 4.13048 7.71465C4.15474 7.61865 4.14029 7.54794 4.18829 7.48394V7.50304L4.53409 8.19465C4.79009 8.60704 5.24429 9.03801 5.62932 9.32859C5.82855 9.4793 5.98545 9.73994 6.24403 9.8282V9.80859H6.22493C6.17435 9.73117 6.0959 9.69865 6.03293 9.63568C5.87317 9.48048 5.72531 9.31347 5.59061 9.13607C5.24067 8.66123 4.93151 8.14097 4.64971 7.59955C4.515 7.34046 4.39784 7.05555 4.28429 6.79233C4.24042 6.69065 4.24093 6.53736 4.15009 6.48472C4.02571 6.67775 3.84248 6.83362 3.74648 7.06123C3.59267 7.4251 3.57255 7.86897 3.51577 8.32936C3.48222 8.34123 3.49719 8.33297 3.47706 8.34846C3.20971 8.28394 3.11577 8.00833 3.01616 7.77194C2.7648 7.17478 2.71784 6.2122 2.93926 5.5242C2.99655 5.34613 3.25564 4.78562 3.15087 4.62097C3.10029 4.45684 2.93564 4.36239 2.84326 4.23697C2.72297 4.06827 2.61991 3.88793 2.53564 3.69865C2.33022 3.2331 2.23371 2.70975 2.01693 2.23852C1.91371 2.01349 1.73822 1.78588 1.59422 1.58562C1.43526 1.36368 1.25667 1.20059 1.13332 0.9322C1.08945 0.836716 1.02958 0.684458 1.09461 0.586393C1.11526 0.520329 1.14467 0.492458 1.21022 0.471296C1.32171 0.385103 1.6319 0.499684 1.74803 0.547684C2.05616 0.675683 2.31319 0.79749 2.57384 0.970909C2.69926 1.05349 2.82622 1.21452 2.97745 1.25891H3.15035C3.42132 1.32084 3.72429 1.27801 3.97667 1.35491C4.42313 1.49065 4.82313 1.70175 5.187 1.93143C6.29461 2.63078 7.1999 3.62588 7.81926 4.81349C7.91887 5.00446 7.96222 5.18717 8.04997 5.39001C8.227 5.79878 8.44997 6.21942 8.62597 6.61942C8.80145 7.01839 8.97332 7.42097 9.22158 7.75284C9.35216 7.9273 9.85693 8.02123 10.0866 8.11826C10.2471 8.18588 10.5104 8.2571 10.6626 8.34846C10.9537 8.52394 11.2355 8.73297 11.508 8.92497C11.6443 9.02149 12.0639 9.23207 12.0845 9.40497C11.4084 9.38743 10.8923 9.44988 10.4515 9.6362C10.3261 9.68884 10.1264 9.69039 10.1057 9.8473C10.1744 9.91955 10.1852 10.0279 10.2399 10.1162C10.3452 10.2865 10.5233 10.5152 10.6817 10.6349C10.8556 10.766 11.0342 10.9059 11.22 11.0194C11.5504 11.2207 11.9199 11.3363 12.2378 11.5381C12.4262 11.6574 12.6131 11.807 12.7958 11.9417Z" fill="white"/>
</g>
<defs>
<clipPath id="clip0_74_718">
<rect width="12.3871" height="12.3871" fill="white" transform="translate(0.677734)"/>
</clipPath>
</defs>
</svg>
