<svg width="24" height="24" viewBox="0 0 24 24" fill="none" xmlns="http://www.w3.org/2000/svg">
<g clip-path="url(#clip0_335_170)">
<path d="M17.8118 22.5037C17.7225 22.5509 17.73 22.5659 17.8155 22.5224C17.8419 22.5118 17.8661 22.4963 17.8868 22.4767C17.8868 22.4609 17.8868 22.4609 17.8118 22.5037ZM17.9918 22.4062C17.949 22.4414 17.949 22.4414 18 22.4182C18.0185 22.4089 18.0357 22.397 18.051 22.3829C18.051 22.3627 18.039 22.3672 17.9918 22.4062ZM18.1088 22.3357C18.066 22.3709 18.066 22.3709 18.117 22.3477C18.1356 22.3381 18.1528 22.326 18.168 22.3117C18.168 22.2929 18.156 22.2967 18.1088 22.3357ZM18.2272 22.2659C18.1845 22.3012 18.1845 22.3012 18.234 22.2772C18.2618 22.2622 18.285 22.2464 18.285 22.2419C18.285 22.2232 18.273 22.2269 18.2272 22.2659ZM18.387 22.1602C18.3053 22.2149 18.2767 22.2502 18.3517 22.2112C18.402 22.1804 18.4875 22.1129 18.4725 22.1129C18.4402 22.1249 18.4132 22.1452 18.3862 22.1602H18.387ZM11.2148 0.00819807C11.16 0.0119481 10.9957 0.0269481 10.8517 0.0389481C7.44075 0.347948 4.2495 2.18395 2.22675 5.0122C1.10819 6.56298 0.381511 8.36141 0.10875 10.2539C0.012 10.9139 0 11.1089 0 12.0037C0 12.8977 0.012 13.0897 0.10875 13.7497C0.762 18.2579 3.969 22.0424 8.316 23.4449C9.09825 23.6947 9.918 23.8672 10.8517 23.9729C11.2147 24.0119 12.7845 24.0119 13.1475 23.9729C14.7615 23.7929 16.1243 23.3947 17.4728 22.7069C17.6798 22.6019 17.7187 22.5742 17.691 22.5509C17.0332 21.6814 16.3809 20.8076 15.7343 19.9297L13.8165 17.3399L11.4142 13.7812C10.6152 12.5896 9.80792 11.4036 8.9925 10.2232C8.98425 10.2232 8.97375 11.8049 8.96925 13.7339C8.961 17.1127 8.961 17.2499 8.91825 17.3279C8.87737 17.4222 8.80388 17.4987 8.71125 17.5432C8.637 17.5784 8.57025 17.5859 8.2155 17.5859H7.80975L7.704 17.5199C7.63788 17.4773 7.58409 17.4181 7.548 17.3482L7.497 17.2424L7.50075 12.5392L7.509 7.83595L7.58325 7.7422C7.63129 7.68518 7.68953 7.63762 7.755 7.60195C7.85325 7.5547 7.89225 7.5472 8.298 7.5472C8.77425 7.5472 8.853 7.56595 8.97825 7.7032C9.9514 9.15061 10.9162 10.6036 11.8725 12.0622C13.4317 14.4262 15.5603 17.6519 16.6065 19.2344L18.5093 22.1137L18.603 22.0514C19.5171 21.4434 20.3457 20.7157 21.0668 19.8877C22.5782 18.1574 23.5591 16.0282 23.892 13.7549C23.9888 13.0949 24.0007 12.8992 24.0007 12.0052C24.0007 11.1112 23.9888 10.9192 23.892 10.2592C23.2388 5.75095 20.0318 1.96645 15.6848 0.563198C14.8723 0.305972 14.0361 0.130846 13.1887 0.0404481C12.9615 0.0171981 11.4105 -0.0105519 11.2155 0.00969807L11.2148 0.00819807ZM16.125 7.26595C16.1809 7.29324 16.2307 7.33147 16.2715 7.37836C16.3124 7.42525 16.3434 7.47986 16.3627 7.53895C16.383 7.60195 16.3867 8.9062 16.383 11.8439L16.3748 16.0619L15.633 14.9219L14.8868 13.7812V10.7189C14.8868 8.7337 14.895 7.6207 14.9055 7.56595C14.9422 7.44041 15.0264 7.33413 15.1403 7.2697C15.2333 7.22245 15.2693 7.2187 15.6405 7.2187C15.9878 7.2187 16.047 7.22245 16.125 7.26595Z" fill="white"/>
</g>
<defs>
<clipPath id="clip0_335_170">
<rect width="24" height="24" fill="white"/>
</clipPath>
</defs>
</svg>
