<svg width="24" height="24" viewBox="0 0 24 24" fill="none" xmlns="http://www.w3.org/2000/svg">
<g clip-path="url(#clip0_135_3)">
<path d="M22.2822 9.821C22.5494 9.01281 22.6415 8.15702 22.5526 7.31047C22.4636 6.46392 22.1955 5.64598 21.7662 4.911C21.1277 3.8008 20.1534 2.92186 18.9835 2.40072C17.8136 1.87957 16.5085 1.74312 15.2562 2.011C14.5448 1.21967 13.6378 0.629405 12.6262 0.299469C11.6146 -0.0304664 10.534 -0.08846 9.49294 0.131311C8.45184 0.351082 7.48687 0.840883 6.69494 1.55154C5.903 2.26219 5.31196 3.16868 4.98116 4.18C4.14713 4.35198 3.35926 4.69953 2.66993 5.19955C1.9806 5.69956 1.4056 6.34058 0.983164 7.08C0.338725 8.18897 0.0634038 9.47406 0.196954 10.7497C0.330504 12.0254 0.866015 13.2256 1.72616 14.177C1.45663 14.9847 1.3627 15.8407 1.45066 16.6876C1.53861 17.5345 1.80642 18.3529 2.23616 19.088C2.87493 20.1991 3.85006 21.0787 5.02097 21.5999C6.19187 22.1211 7.49805 22.257 8.75116 21.988C9.31699 22.6241 10.0117 23.1324 10.7891 23.4793C11.5665 23.8262 12.4089 24.0037 13.2602 24C14.5437 24.0005 15.7943 23.5935 16.8316 22.8376C17.8689 22.0817 18.6395 21.016 19.0322 19.794C19.866 19.6219 20.6537 19.2743 21.3428 18.7743C22.032 18.2743 22.6068 17.6333 23.0292 16.894C23.6659 15.7868 23.9366 14.5066 23.8024 13.2364C23.6683 11.9662 23.1362 10.7708 22.2822 9.821ZM13.2602 22.43C12.2092 22.4314 11.1912 22.0633 10.3842 21.39L10.5252 21.309L15.3042 18.551C15.4226 18.4808 15.5209 18.3812 15.5895 18.2619C15.6582 18.1426 15.6949 18.0076 15.6962 17.87V11.133L17.7162 12.301C17.7262 12.306 17.7349 12.3133 17.7415 12.3224C17.7481 12.3314 17.7525 12.3419 17.7542 12.353V17.936C17.7515 19.1271 17.2772 20.2686 16.435 21.1108C15.5928 21.953 14.4512 22.4274 13.2602 22.43ZM3.60016 18.304C3.07266 17.3936 2.88321 16.3263 3.06516 15.29L3.20716 15.375L7.99016 18.134C8.1084 18.2035 8.24304 18.2401 8.38016 18.2401C8.51729 18.2401 8.65193 18.2035 8.77016 18.134L14.6132 14.765V17.097C14.6127 17.1092 14.6096 17.1211 14.6038 17.1318C14.5981 17.1426 14.59 17.1519 14.5802 17.159L9.74016 19.95C8.70736 20.5446 7.48088 20.7052 6.32981 20.3966C5.17873 20.088 4.19706 19.3355 3.60016 18.304ZM2.34016 7.896C2.87214 6.98045 3.70993 6.28182 4.70616 5.923V11.6C4.70466 11.7372 4.73984 11.8723 4.80806 11.9913C4.87627 12.1103 4.97505 12.209 5.09416 12.277L10.9092 15.631L8.88916 16.799C8.87813 16.8045 8.86598 16.8073 8.85366 16.8073C8.84135 16.8073 8.8292 16.8045 8.81816 16.799L3.98816 14.013C2.9569 13.4157 2.20441 12.434 1.89552 11.283C1.58663 10.1319 1.74652 8.90538 2.34016 7.872V7.896ZM18.9372 11.751L13.1042 8.364L15.1192 7.2C15.1302 7.19454 15.1423 7.19169 15.1547 7.19169C15.167 7.19169 15.1791 7.19454 15.1902 7.2L20.0202 9.991C20.7591 10.4169 21.3616 11.0443 21.7572 11.7999C22.1528 12.5555 22.3253 13.4081 22.2544 14.258C22.1835 15.108 21.8722 15.9202 21.3569 16.5998C20.8415 17.2794 20.1434 17.7984 19.3442 18.096V12.418C19.34 12.2811 19.3003 12.1476 19.2289 12.0307C19.1575 11.9137 19.057 11.8174 18.9372 11.751ZM20.9472 8.728L20.8062 8.643L16.0322 5.861C15.913 5.79161 15.7776 5.75505 15.6397 5.75505C15.5018 5.75505 15.3663 5.79161 15.2472 5.861L9.40916 9.23V6.897C9.40835 6.8853 9.41048 6.87358 9.41538 6.86293C9.42027 6.85227 9.42776 6.84301 9.43716 6.836L14.2672 4.049C15.0075 3.62292 15.8538 3.41637 16.7072 3.45347C17.5606 3.49058 18.3858 3.76981 19.0864 4.25853C19.787 4.74726 20.334 5.42529 20.6635 6.21338C20.993 7.00147 21.0914 7.86706 20.9472 8.709V8.728ZM8.30716 12.863L6.28716 11.699C6.277 11.6929 6.26833 11.6846 6.26175 11.6748C6.25518 11.6649 6.25088 11.6537 6.24916 11.642V6.075C6.25084 5.2211 6.49544 4.3853 6.95439 3.66522C7.41334 2.94513 8.06769 2.3705 8.84103 2.00842C9.61437 1.64634 10.4748 1.51177 11.3217 1.62041C12.1687 1.72906 12.9673 2.07645 13.6242 2.622L13.4822 2.702L8.70416 5.46C8.58557 5.53007 8.48708 5.62958 8.41823 5.74889C8.34938 5.8682 8.3125 6.00326 8.31116 6.141L8.30716 12.863ZM9.40416 10.498L12.0062 8.998L14.6132 10.498V13.497L12.0162 14.997L9.40916 13.497L9.40416 10.498Z" fill="white"/>
</g>
<defs>
<clipPath id="clip0_135_3">
<rect width="24" height="24" fill="white"/>
</clipPath>
</defs>
</svg>
