<svg width="14" height="13" viewBox="0 0 14 13" fill="none" xmlns="http://www.w3.org/2000/svg">
<path fill-rule="evenodd" clip-rule="evenodd" d="M7.51988 9.56252C7.51988 9.75292 7.67423 9.90728 7.86464 9.90728C8.05504 9.90728 8.20939 9.75292 8.20939 9.56252C8.20939 9.37212 8.05504 9.21776 7.86464 9.21776C7.67423 9.21776 7.51988 9.37212 7.51988 9.56252ZM5.79004 2.82462C5.79004 3.01502 5.94439 3.16937 6.1348 3.16937C6.3252 3.16937 6.47956 3.01502 6.47956 2.82462C6.47956 2.63421 6.3252 2.47986 6.1348 2.47986C5.94439 2.47986 5.79004 2.63421 5.79004 2.82462Z" fill="white"/>
<path fill-rule="evenodd" clip-rule="evenodd" d="M10.7441 3.6014H9.59201V2.44933C9.59201 1.84564 9.10122 1.35486 8.49754 1.35486H5.50214C4.89846 1.35486 4.40767 1.84564 4.40767 2.44933V3.6014H3.2556C2.65191 3.6014 2.16113 4.09219 2.16113 4.69587V7.69127C2.16113 8.29495 2.65191 8.78574 3.2556 8.78574H4.40767V9.93781C4.40767 10.5415 4.89846 11.0323 5.50214 11.0323H8.49754C9.10122 11.0323 9.59201 10.5415 9.59201 9.93781V8.78574H10.7441C11.3478 8.78574 11.8386 8.29495 11.8386 7.69127V4.69587C11.8386 4.09219 11.3478 3.6014 10.7441 3.6014ZM3.2556 8.09449C3.03326 8.09449 2.85238 7.91361 2.85238 7.69127V4.69587C2.85238 4.47353 3.03325 4.29264 3.2556 4.29264H6.62542C6.81667 4.29264 6.97104 4.13827 6.97104 3.94703C6.97104 3.75579 6.81666 3.6014 6.62542 3.6014H5.09893V2.44933C5.09893 2.22699 5.2798 2.0461 5.50214 2.0461H8.49754C8.71988 2.0461 8.90077 2.22698 8.90077 2.44933V5.55186C8.90077 5.71546 8.76827 5.84795 8.60469 5.84795H5.395C4.85008 5.84795 4.40767 6.29149 4.40767 6.83528V8.09449H3.2556ZM11.1473 7.69127C11.1473 7.91361 10.9664 8.09449 10.7441 8.09449H7.37426C7.18301 8.09449 7.02865 8.24887 7.02865 8.44011C7.02865 8.63135 7.18302 8.78574 7.37426 8.78574H8.90075V9.93781C8.90075 10.1601 8.71988 10.341 8.49754 10.341H5.50214C5.2798 10.341 5.09892 10.1602 5.09892 9.93781V6.83528C5.09892 6.67168 5.23142 6.53919 5.395 6.53919H8.60469C9.14961 6.53919 9.59201 6.09564 9.59201 5.55186V4.29264H10.7441C10.9664 4.29264 11.1473 4.47353 11.1473 4.69587V7.69127Z" fill="white"/>
</svg>
