<svg width="13" height="13" viewBox="0 0 13 13" fill="none" xmlns="http://www.w3.org/2000/svg">
<path d="M9.86263 6.38764C9.80207 6.31848 9.73824 6.24915 9.67115 6.17964C9.71794 6.13009 9.76336 6.08072 9.8074 6.03151C10.6358 5.10042 10.9857 4.16622 10.6616 3.60519C10.3509 3.06687 9.4265 2.90635 8.26882 3.13138C8.15493 3.15375 8.04155 3.17887 7.92869 3.20674C7.90702 3.13242 7.88413 3.05844 7.86005 2.9848C7.46727 1.80132 6.83295 1.03177 6.18469 1.03229C5.56327 1.03229 4.9625 1.75332 4.57902 2.86867C4.54117 2.97878 4.50624 3.08958 4.47424 3.20106C4.39889 3.18248 4.32319 3.16528 4.24715 3.14945C3.02598 2.89913 2.04276 3.06429 1.71915 3.62635C1.40895 4.16467 1.73308 5.04571 2.50779 5.93448C2.58487 6.02222 2.66401 6.10824 2.74521 6.19255C2.64921 6.29061 2.55889 6.38885 2.47424 6.48726C1.71811 7.36364 1.41257 8.22971 1.72224 8.76596C2.04224 9.32029 3.01153 9.50145 4.19192 9.26919C4.28758 9.25027 4.38272 9.22893 4.47734 9.20519C4.51175 9.32596 4.54977 9.44588 4.5914 9.56493C4.97334 10.6576 5.5705 11.3549 6.18986 11.3549C6.82985 11.3549 7.47089 10.6049 7.85953 9.46635C7.89016 9.37654 7.91923 9.28347 7.94676 9.18713C8.06891 9.21741 8.19192 9.24424 8.31579 9.26764C9.45282 9.48287 10.3555 9.31409 10.6647 8.77732C10.9842 8.22248 10.6544 7.29242 9.86263 6.38764ZM2.10108 3.84622C2.30031 3.50042 3.10392 3.36519 4.15837 3.58197C4.22581 3.59573 4.29446 3.61121 4.36431 3.62842C4.26129 4.08384 4.18852 4.54558 4.1465 5.01061C3.76634 5.27813 3.40379 5.56983 3.06108 5.8839C2.98573 5.80579 2.91226 5.72579 2.84069 5.6439C2.17644 4.88313 1.91424 4.17087 2.10108 3.84622ZM4.10727 6.80261C3.84405 6.60287 3.59889 6.39848 3.37644 6.19306C3.59837 5.98867 3.84353 5.78532 4.10676 5.58609C4.09712 5.78876 4.09248 5.9916 4.09282 6.19461C4.09282 6.39762 4.09764 6.60029 4.10727 6.80261ZM4.10727 8.83616C3.65996 8.93623 3.19799 8.95268 2.74469 8.88468C2.62045 8.87484 2.49952 8.83968 2.38937 8.78136C2.27922 8.72304 2.18216 8.6428 2.10418 8.54558C1.91579 8.22042 2.16147 7.52467 2.80818 6.77526C2.88938 6.68132 2.97334 6.58979 3.06005 6.50068C3.40281 6.81679 3.7661 7.1099 4.14753 7.37809C4.19021 7.84897 4.26366 8.31655 4.3674 8.77784C4.28138 8.79951 4.1945 8.81913 4.10676 8.83668L4.10727 8.83616ZM7.77179 4.687C7.59872 4.57792 7.42358 4.47246 7.24637 4.37061C7.07158 4.27014 6.89489 4.17328 6.71631 4.08003C7.00999 3.95626 7.30953 3.84689 7.61386 3.75229C7.68237 4.06097 7.73509 4.37294 7.77179 4.687ZM4.99657 3.01164C5.32482 2.0568 5.81102 1.47358 6.18573 1.47358C6.58469 1.47306 7.10289 2.10222 7.44198 3.12364C7.46401 3.1904 7.48465 3.25749 7.50392 3.32493C7.05879 3.46292 6.62326 3.63017 6.20018 3.82558C5.77855 3.62765 5.34401 3.45849 4.89953 3.31926C4.92947 3.21603 4.96181 3.11349 4.99657 3.01164ZM4.79011 3.74661C5.09322 3.84172 5.39124 3.95232 5.68302 4.07797C5.32104 4.26446 4.96869 4.46764 4.62598 4.68751C4.66727 4.35822 4.7225 4.04287 4.79011 3.74661ZM4.6265 7.70016C4.79751 7.80992 4.9711 7.91538 5.14727 8.01655C5.32689 8.11977 5.50874 8.21887 5.69282 8.31384C5.39892 8.44373 5.09847 8.5583 4.79269 8.65706C4.72154 8.34121 4.66608 8.02202 4.6265 7.70068V7.70016ZM7.4425 9.3239C7.30558 9.76124 7.08895 10.1695 6.80353 10.528C6.73306 10.6308 6.64231 10.7181 6.53686 10.7845C6.43142 10.8508 6.3135 10.895 6.19037 10.9141C5.81411 10.9141 5.33463 10.3541 5.00844 9.41938C4.9699 9.30893 4.93446 9.19745 4.90211 9.08493C5.34872 8.94105 5.785 8.76688 6.20792 8.56364C6.6347 8.76039 7.07382 8.92918 7.5225 9.06893C7.49773 9.15461 7.47106 9.2396 7.4425 9.3239ZM7.62934 8.64055C7.32089 8.54445 7.01738 8.43318 6.71992 8.30713C6.89506 8.21526 7.0714 8.11805 7.24895 8.01551C7.43132 7.91022 7.60887 7.80235 7.7816 7.6919C7.74724 8.01053 7.69642 8.32717 7.62934 8.64055ZM7.86005 6.19255C7.86005 6.50601 7.85024 6.81913 7.83063 7.1319C7.57566 7.30463 7.30831 7.47186 7.02856 7.63358C6.74986 7.79427 6.4751 7.94153 6.20431 8.07538C5.91975 7.93913 5.64069 7.7922 5.36715 7.63461C5.09532 7.47805 4.82968 7.31134 4.57024 7.13448C4.54616 6.82136 4.53411 6.5079 4.53411 6.19409C4.53411 5.88063 4.54581 5.56734 4.56921 5.25422C5.08788 4.89971 5.63276 4.58517 6.19915 4.31332C6.47992 4.44992 6.7557 4.59633 7.0265 4.75255C7.29833 4.90876 7.565 5.07375 7.8265 5.24751C7.84887 5.56201 7.86005 5.87702 7.86005 6.19255ZM8.35347 3.5639C9.34547 3.37138 10.0928 3.50093 10.2802 3.82558C10.4799 4.17138 10.194 4.93422 9.47811 5.73835C9.43854 5.78274 9.3976 5.8273 9.35527 5.87203C9.00668 5.55677 8.63696 5.26568 8.24869 5.0008C8.20966 4.5409 8.13983 4.08413 8.03966 3.63358C8.14633 3.60743 8.25093 3.5842 8.35347 3.5639ZM8.28637 5.56906C8.54843 5.76014 8.8003 5.96481 9.04095 6.18222C8.80139 6.40309 8.55038 6.61121 8.28895 6.80571C8.29687 6.60132 8.30082 6.39693 8.30082 6.19255C8.30082 5.98472 8.29601 5.77689 8.28637 5.56906ZM10.2833 8.55693C10.0954 8.88261 9.37076 9.01835 8.39786 8.83461C8.28637 8.81362 8.17213 8.7885 8.05515 8.75926C8.15294 8.30288 8.21968 7.8404 8.25489 7.375C8.64235 7.10551 9.01087 6.80976 9.35785 6.48984C9.41876 6.5528 9.47656 6.61543 9.53127 6.67771C9.84182 7.01479 10.0873 7.40641 10.2554 7.8328C10.3092 7.94522 10.3394 8.06746 10.3442 8.19199C10.349 8.31652 10.3283 8.44071 10.2833 8.55693ZM5.73153 5.38738C5.57366 5.47855 5.44636 5.61447 5.36573 5.77798C5.2851 5.94149 5.25477 6.12523 5.27856 6.30598C5.30235 6.48672 5.37921 6.65635 5.4994 6.79343C5.6196 6.93049 5.77774 7.02885 5.95383 7.07604C6.12992 7.12324 6.31605 7.11717 6.48869 7.05859C6.66133 7 6.81272 6.89155 6.92372 6.74693C7.03472 6.60232 7.10035 6.42803 7.1123 6.24612C7.12426 6.06421 7.08201 5.88283 6.99089 5.72493C6.93037 5.62007 6.84979 5.52815 6.75375 5.45443C6.6577 5.38071 6.54808 5.32663 6.43113 5.29529C6.31419 5.26394 6.19221 5.25594 6.07217 5.27174C5.95213 5.28755 5.83638 5.32684 5.73153 5.38738Z" fill="white"/>
</svg>
