<svg width="24" height="24" viewBox="0 0 24 24" fill="none" xmlns="http://www.w3.org/2000/svg">
<path d="M17.8359 1.48828C18.4766 1.48828 19.082 1.60938 19.6523 1.85156C20.2227 2.09375 20.7188 2.42969 21.1406 2.85938C21.5625 3.28906 21.8945 3.78516 22.1367 4.34766C22.3789 4.91016 22.5039 5.51563 22.5117 6.16406V17.8125C22.5117 18.4609 22.3906 19.0664 22.1484 19.6289C21.9063 20.1914 21.5703 20.6875 21.1406 21.1172C20.7109 21.5469 20.2148 21.8789 19.6523 22.1133C19.0898 22.3477 18.4844 22.4727 17.8359 22.4883H6.1875C5.53906 22.4883 4.93359 22.3672 4.37109 22.125C3.80859 21.8828 3.3125 21.5469 2.88281 21.1172C2.45312 20.6875 2.11719 20.1953 1.875 19.6406C1.63281 19.0859 1.50781 18.4766 1.5 17.8125V6.16406C1.5 5.51563 1.62109 4.91016 1.86328 4.34766C2.10547 3.78516 2.44141 3.28906 2.87109 2.85938C3.30078 2.42969 3.79688 2.09766 4.35938 1.86328C4.92188 1.62891 5.53125 1.50391 6.1875 1.48828H17.8359ZM19.3008 18.668C19.3398 18.668 19.3711 18.6328 19.3945 18.5625C19.418 18.4922 19.4375 18.4063 19.4531 18.3047C19.4688 18.2031 19.4766 18.1172 19.4766 18.0469C19.4766 17.9766 19.4805 17.9297 19.4883 17.9062C19.4883 17.2813 19.3672 16.6719 19.125 16.0781C18.8828 15.4844 18.5625 14.9453 18.1641 14.4609C18.25 14.1641 18.3125 13.8594 18.3516 13.5469C18.3906 13.2344 18.4141 12.918 18.4219 12.5977C18.4219 11.7695 18.2891 10.957 18.0234 10.1602C17.7578 9.36328 17.3984 8.61328 16.9453 7.91016C16.4922 7.20703 15.957 6.5625 15.3398 5.97656C14.7227 5.39062 14.0703 4.89062 13.3828 4.47656C13.9453 5.23437 14.3984 6.0625 14.7422 6.96094C15.0859 7.85937 15.2578 8.78516 15.2578 9.73828C15.2578 10.1367 15.2227 10.5273 15.1523 10.9102C15.082 11.293 14.9766 11.6758 14.8359 12.0586C14.7813 12.0195 14.7305 11.9883 14.6836 11.9648C14.6367 11.9414 14.582 11.9102 14.5195 11.8711C14.1445 11.668 13.7812 11.4336 13.4297 11.168C13.0781 10.9023 12.7266 10.6367 12.375 10.3711C11.5 9.71484 10.6523 9.03516 9.83203 8.33203C9.01172 7.62891 8.21094 6.88672 7.42969 6.10547C7.39063 6.07422 7.35938 6.03516 7.33594 5.98828C7.3125 5.94141 7.28906 5.90234 7.26562 5.87109C7.24219 5.83984 7.21484 5.80859 7.18359 5.77734C7.15234 5.74609 7.10937 5.73047 7.05469 5.73047C7.05469 5.76172 7.12109 5.87109 7.25391 6.05859C7.38672 6.24609 7.55469 6.48047 7.75781 6.76172C7.96094 7.04297 8.1875 7.33594 8.4375 7.64062C8.6875 7.94531 8.91406 8.24219 9.11719 8.53125C9.32031 8.82031 9.51172 9.0625 9.69141 9.25781C9.87109 9.45312 9.97266 9.57813 9.99609 9.63281C10.2539 9.94531 10.5156 10.25 10.7812 10.5469C11.0469 10.8438 11.3164 11.1445 11.5898 11.4492C11.0977 11.1758 10.625 10.875 10.1719 10.5469C9.71875 10.2188 9.26563 9.88672 8.8125 9.55078C8.17969 9.08203 7.55859 8.60156 6.94922 8.10938C6.33984 7.61719 5.73828 7.10156 5.14453 6.5625C5.27734 6.78125 5.41797 6.98828 5.56641 7.18359C5.71484 7.37891 5.86719 7.57422 6.02344 7.76953C6.52344 8.39453 7.03125 9.01172 7.54688 9.62109C8.0625 10.2305 8.58984 10.832 9.12891 11.4258C9.66797 12.0195 10.2266 12.5859 10.8047 13.125C11.3828 13.6641 11.9922 14.1836 12.6328 14.6836C12.125 14.9883 11.5859 15.2109 11.0156 15.3516C10.4453 15.4922 9.86719 15.5664 9.28125 15.5742C8.26563 15.5742 7.27344 15.3906 6.30469 15.0234C5.33594 14.6562 4.44141 14.1758 3.62109 13.582C4.06641 14.3008 4.60156 14.9648 5.22656 15.5742C5.85156 16.1836 6.53906 16.7148 7.28906 17.168C8.03906 17.6211 8.82422 17.9688 9.64453 18.2109C10.4648 18.4531 11.3125 18.582 12.1875 18.5977C12.75 18.5977 13.3008 18.5391 13.8398 18.4219C14.3789 18.3047 14.8984 18.1133 15.3984 17.8477C15.6953 17.6914 15.9883 17.5586 16.2773 17.4492C16.5664 17.3398 16.8828 17.2852 17.2266 17.2852C17.7188 17.2852 18.1172 17.4023 18.4219 17.6367C18.7266 17.8711 19 18.1953 19.2422 18.6094C19.2578 18.6484 19.2773 18.668 19.3008 18.668Z" fill="white"/>
</svg>
