<svg width="14" height="13" viewBox="0 0 14 13" fill="none" xmlns="http://www.w3.org/2000/svg">
<g clip-path="url(#clip0_74_710)">
<path d="M7.06412 2.50836C8.70197 2.50836 9.72562 3.32729 10.1351 4.96514C9.52089 4.14621 8.80433 3.83911 7.98541 4.04385C7.51831 4.16049 7.18438 4.49959 6.81483 4.87481C6.21199 5.48643 5.51573 6.19352 3.99315 6.19352C2.3553 6.19352 1.33165 5.3746 0.922185 3.73675C1.53638 4.55567 2.25294 4.86277 3.07186 4.65804C3.53947 4.54139 3.87289 4.2023 4.24347 3.82707C4.84476 3.21546 5.54154 2.50836 7.06412 2.50836ZM10.1351 6.19352C11.7729 6.19352 12.7966 7.01245 13.2061 8.6503C12.5919 7.83137 11.8753 7.52428 11.0564 7.72901C10.5893 7.84565 10.2553 8.18475 9.88528 8.55997C9.28347 9.17159 8.5867 9.87868 7.06412 9.87868C5.42627 9.87868 4.40261 9.05976 3.99315 7.42191C4.60734 8.24084 5.3239 8.54793 6.14283 8.3432C6.61044 8.22656 6.94386 7.88746 7.31444 7.51223C7.91573 6.90062 8.61251 6.19352 10.1351 6.19352Z" fill="white"/>
</g>
<defs>
<clipPath id="clip0_74_710">
<rect width="12.3871" height="12.3871" fill="white" transform="matrix(-1 0 0 1 13.2578 0)"/>
</clipPath>
</defs>
</svg>
