<svg width="32" height="32" viewBox="0 0 32 32" fill="none" xmlns="http://www.w3.org/2000/svg">
<g clip-path="url(#clip0_55_481)">
<path d="M26.6664 17.0667V16.7104C26.6664 15.1403 25.3928 13.8667 23.8227 13.8667H21.3331C20.4844 13.8667 19.6704 14.2038 19.0703 14.8039C18.4702 15.404 18.1331 16.218 18.1331 17.0667C18.1331 17.9153 18.4702 18.7293 19.0703 19.3294C19.6704 19.9295 20.4844 20.2667 21.3331 20.2667H23.4664C24.3151 20.2667 25.129 20.6038 25.7291 21.2039C26.3293 21.804 26.6664 22.618 26.6664 23.4667C26.6664 24.3153 26.3293 25.1293 25.7291 25.7294C25.129 26.3295 24.3151 26.6667 23.4664 26.6667H21.3331C20.4844 26.6667 19.6704 26.3295 19.0703 25.7294C18.4702 25.1293 18.1331 24.3153 18.1331 23.4667M17.0664 13.8667H6.39974M11.7331 13.8667V27.7333M1.06641 1.06665H30.9331V30.9333H1.06641V1.06665Z" stroke="white" stroke-width="2.13333"/>
</g>
<defs>
<clipPath id="clip0_55_481">
<rect width="32" height="32" fill="white"/>
</clipPath>
</defs>
</svg>
