<svg width="220" height="220" viewBox="0 0 220 220" fill="none" xmlns="http://www.w3.org/2000/svg">
<mask id="mask0_50_778" style="mask-type:alpha" maskUnits="userSpaceOnUse" x="0" y="0" width="220" height="220">
<g clip-path="url(#clip0_50_778)">
<path d="M64.4064 61.1692C49.5528 97.7445 70.3072 136.742 91.2469 145.248C112.187 153.755 154.307 140.127 169.116 103.686C171.908 96.8118 173.317 89.4548 173.265 82.0354C173.213 74.6161 171.701 67.2796 168.813 60.4448C165.926 53.6101 161.721 47.411 156.438 42.2014C151.155 36.9919 144.897 32.8739 138.023 30.0826C131.148 27.2914 123.791 25.8815 116.372 25.9335C108.953 25.9854 101.616 27.4982 94.7814 30.3855C87.9467 33.2728 81.7475 37.478 76.538 42.7611C71.3284 48.0441 67.2105 54.3015 64.4192 61.176L64.4064 61.1692Z" fill="#070707" stroke="#070707" stroke-width="11.3125" stroke-miterlimit="10"/>
<path d="M112.174 129.381C124.549 127.751 138.884 120.38 147.74 107.164L112.174 129.381ZM50.8732 182.413C63.249 180.782 76.0297 174.129 84.8846 160.916L50.8732 182.413Z" fill="#070707"/>
<path d="M112.174 129.381C124.549 127.751 138.884 120.38 147.74 107.164M50.8732 182.413C63.249 180.782 76.0297 174.129 84.8846 160.916" stroke="#070707" stroke-width="11.3125" stroke-miterlimit="10" stroke-linecap="round"/>
<path d="M96.4844 147.369L95.3567 165.168L74.4161 156.665L86.0159 143.118L96.4844 147.369Z" fill="#070707" stroke="#070707" stroke-width="11.3125" stroke-linecap="round" stroke-linejoin="round"/>
</g>
</mask>
<g mask="url(#mask0_50_778)">
<g filter="url(#filter0_b_50_778)">
<rect x="-23.5332" y="-42.759" width="334" height="206" rx="20" transform="rotate(14.0979 -23.5332 -42.759)" fill="url(#paint0_linear_50_778)"/>
<rect x="-23.8964" y="-43.3658" width="335" height="207" rx="20.5" transform="rotate(14.0979 -23.8964 -43.3658)" stroke="url(#paint1_radial_50_778)"/>
</g>
<path d="M76.6293 92.06C76.2026 90.86 75.776 89.66 75.3493 88.46C74.9226 87.2467 74.496 86.04 74.0693 84.84C73.656 86.04 73.236 87.24 72.8093 88.44C72.3826 89.64 71.9626 90.8467 71.5493 92.06H76.6293ZM82.2693 97.7C82.2693 97.78 82.256 97.8533 82.2293 97.92C82.216 97.9733 82.1693 98 82.0893 98C81.996 98 81.7626 97.9933 81.3893 97.98C81.0293 97.9667 80.716 97.96 80.4493 97.96C80.036 97.96 79.6226 97.96 79.2093 97.96C78.8093 97.96 78.4026 97.9733 77.9893 98C77.776 98.0133 77.556 98.02 77.3293 98.02C77.116 98.0333 76.9026 98.04 76.6893 98.04C76.6226 98.04 76.576 98.02 76.5493 97.98C76.536 97.9267 76.5293 97.8733 76.5293 97.82L76.5493 97.66C76.5493 97.62 76.5626 97.58 76.5893 97.54C76.616 97.4867 76.656 97.46 76.7093 97.46H77.6893C77.8093 97.46 77.9426 97.4333 78.0893 97.38C78.2493 97.3267 78.3293 97.2267 78.3293 97.08C78.3293 97.04 78.2826 96.8867 78.1893 96.62C78.096 96.34 77.9826 96.0067 77.8493 95.62C77.716 95.22 77.576 94.82 77.4293 94.42C77.2826 94.02 77.156 93.6667 77.0493 93.36C76.9426 93.04 76.8693 92.8333 76.8293 92.74H71.3693C71.3293 92.86 71.2493 93.08 71.1293 93.4C71.0093 93.7067 70.876 94.06 70.7293 94.46C70.596 94.86 70.456 95.2533 70.3093 95.64C70.176 96.0267 70.0626 96.36 69.9693 96.64C69.8893 96.9067 69.8493 97.0733 69.8493 97.14C69.8493 97.3267 69.9493 97.4467 70.1493 97.5C70.3493 97.5533 70.516 97.58 70.6493 97.58C70.7826 97.58 70.9026 97.58 71.0093 97.58C71.116 97.58 71.2026 97.5733 71.2693 97.56C71.296 97.56 71.3426 97.56 71.4093 97.56C71.4893 97.5467 71.536 97.54 71.5493 97.54C71.6293 97.54 71.676 97.5867 71.6893 97.68C71.716 97.7733 71.7226 97.8467 71.7093 97.9C71.696 97.9533 71.6626 97.9867 71.6093 98C71.5693 98 71.5226 98 71.4693 98C71.0826 98 70.6893 97.9933 70.2893 97.98C69.8893 97.9667 69.496 97.96 69.1093 97.96C68.816 97.96 68.5293 97.9667 68.2493 97.98C67.9693 97.9933 67.6826 98 67.3893 98C67.2693 98 67.2093 97.9333 67.2093 97.8C67.2093 97.6133 67.3026 97.52 67.4893 97.52C67.556 97.52 67.636 97.5267 67.7293 97.54C67.8226 97.54 67.9226 97.54 68.0293 97.54C68.176 97.54 68.3226 97.5 68.4693 97.42C68.6293 97.3267 68.7626 97.1667 68.8693 96.94C68.936 96.82 69.0693 96.5 69.2693 95.98C69.4693 95.46 69.716 94.8133 70.0093 94.04C70.3026 93.2533 70.6093 92.4133 70.9293 91.52C71.2626 90.6133 71.5893 89.7133 71.9093 88.82C72.2293 87.9267 72.516 87.1 72.7693 86.34C73.036 85.58 73.2493 84.9533 73.4093 84.46C73.5693 83.9533 73.6493 83.6533 73.6493 83.56C73.6493 83.5333 73.6293 83.5 73.5893 83.46C73.5493 83.4067 73.5293 83.3733 73.5293 83.36C73.5293 83.3067 73.5493 83.2733 73.5893 83.26C73.7226 83.2333 73.8626 83.2133 74.0093 83.2C74.156 83.1867 74.296 83.1733 74.4293 83.16C74.6026 83.1333 74.776 83.1133 74.9493 83.1C75.1226 83.0733 75.296 83.0533 75.4693 83.04L80.6493 97.04C80.7026 97.1733 80.8026 97.28 80.9493 97.36C81.1093 97.4267 81.256 97.46 81.3893 97.46C81.5093 97.46 81.6293 97.46 81.7493 97.46C81.8826 97.4467 82.016 97.44 82.1493 97.44C82.2026 97.44 82.236 97.4733 82.2493 97.54C82.2626 97.6067 82.2693 97.66 82.2693 97.7ZM92.0976 92.36C92.0976 91.88 92.0509 91.3933 91.9576 90.9C91.8642 90.4067 91.7109 89.96 91.4976 89.56C91.2842 89.1467 90.9842 88.8133 90.5976 88.56C90.2242 88.3067 89.7442 88.18 89.1576 88.18C88.9042 88.18 88.5976 88.2533 88.2376 88.4C87.8909 88.5333 87.6242 88.6933 87.4376 88.88C87.1842 89.12 86.9909 89.38 86.8576 89.66C86.7242 89.94 86.6509 90.26 86.6376 90.62L86.6176 93.98C86.6176 94.3533 86.6176 94.7333 86.6176 95.12C86.6176 95.4933 86.6176 95.8733 86.6176 96.26C86.6176 96.3533 86.6242 96.48 86.6376 96.64C86.6642 96.7867 86.6909 96.8933 86.7176 96.96C86.8242 97.1733 87.0309 97.3133 87.3376 97.38C87.6576 97.4333 87.9176 97.46 88.1176 97.46C88.8376 97.46 89.4509 97.3133 89.9576 97.02C90.4642 96.7267 90.8709 96.3333 91.1776 95.84C91.4976 95.3467 91.7309 94.8 91.8776 94.2C92.0242 93.5867 92.0976 92.9733 92.0976 92.36ZM94.0976 92.38C94.0976 93.4467 93.8576 94.4067 93.3776 95.26C92.9109 96.1133 92.2576 96.7867 91.4176 97.28C90.5909 97.76 89.6309 98 88.5376 98C88.0576 98 87.5776 97.9333 87.0976 97.8C86.6176 97.6667 86.1642 97.6 85.7376 97.6C85.6442 97.6 85.5442 97.6067 85.4376 97.62C85.3309 97.6333 85.2242 97.64 85.1176 97.64C84.8909 97.64 84.7776 97.52 84.7776 97.28C84.7776 97.2 84.7909 97.1067 84.8176 97C84.8442 96.7467 84.8576 96.4933 84.8576 96.24C84.8576 95.9867 84.8642 95.7333 84.8776 95.48C84.8776 95.1867 84.8776 94.9 84.8776 94.62C84.8909 94.3267 84.8976 94.0333 84.8976 93.74C84.8976 92.14 84.8842 90.54 84.8576 88.94C84.8442 87.34 84.8376 85.74 84.8376 84.14C84.8376 83.9533 84.7776 83.8333 84.6576 83.78C84.5376 83.7267 84.3976 83.7 84.2376 83.7C84.0642 83.7 83.8842 83.7133 83.6976 83.74C83.5109 83.7533 83.3242 83.76 83.1376 83.76C83.0842 83.76 83.0242 83.74 82.9576 83.7C82.9042 83.6467 82.8776 83.5867 82.8776 83.52C82.8776 83.44 82.9176 83.3867 82.9976 83.36C83.0776 83.32 83.1442 83.2933 83.1976 83.28C83.6642 83.1867 84.1309 83.1067 84.5976 83.04C85.0776 82.9733 85.5442 82.88 85.9976 82.76C86.0776 82.7333 86.1576 82.7067 86.2376 82.68C86.3309 82.64 86.4176 82.62 86.4976 82.62C86.5909 82.62 86.6309 82.68 86.6176 82.8C86.6176 82.92 86.6176 83.0133 86.6176 83.08V88.66C87.0442 88.3 87.5376 88 88.0976 87.76C88.6709 87.52 89.2376 87.4 89.7976 87.4C90.7442 87.4 91.5376 87.6333 92.1776 88.1C92.8176 88.5667 93.2976 89.18 93.6176 89.94C93.9376 90.6867 94.0976 91.5 94.0976 92.38ZM104.145 92.72C104.145 92.1467 104.098 91.5733 104.005 91C103.925 90.4133 103.765 89.8733 103.525 89.38C103.298 88.8867 102.965 88.4933 102.525 88.2C102.085 87.8933 101.511 87.74 100.805 87.74C100.138 87.74 99.5913 87.9 99.1646 88.22C98.7513 88.54 98.4246 88.9533 98.1846 89.46C97.9579 89.9667 97.7979 90.5133 97.7046 91.1C97.6246 91.6867 97.5846 92.24 97.5846 92.76C97.5846 93.3333 97.6246 93.9067 97.7046 94.48C97.7979 95.0533 97.9646 95.5733 98.2046 96.04C98.4446 96.4933 98.7846 96.86 99.2246 97.14C99.6779 97.42 100.258 97.56 100.965 97.56C101.658 97.56 102.211 97.4133 102.625 97.12C103.051 96.8267 103.371 96.44 103.585 95.96C103.811 95.48 103.958 94.96 104.025 94.4C104.105 93.8267 104.145 93.2667 104.145 92.72ZM106.205 92.78C106.205 93.78 105.965 94.68 105.485 95.48C105.018 96.28 104.378 96.9133 103.565 97.38C102.765 97.8467 101.865 98.08 100.865 98.08C99.8913 98.08 99.0113 97.8467 98.2246 97.38C97.4379 96.9 96.8113 96.2667 96.3446 95.48C95.8779 94.68 95.6446 93.7933 95.6446 92.82C95.6446 91.82 95.8713 90.9 96.3246 90.06C96.7779 89.2067 97.3979 88.52 98.1846 88C98.9846 87.48 99.9046 87.22 100.945 87.22C102.065 87.22 103.018 87.46 103.805 87.94C104.591 88.4067 105.185 89.06 105.585 89.9C105.998 90.7267 106.205 91.6867 106.205 92.78ZM119.487 97.46C119.487 97.62 119.367 97.74 119.127 97.82C118.9 97.9 118.647 97.9533 118.367 97.98C118.087 98.0067 117.887 98.02 117.767 98.02C117.314 98.02 116.954 97.84 116.687 97.48C116.42 97.12 116.22 96.7467 116.087 96.36C115.634 96.9333 115.067 97.36 114.387 97.64C113.707 97.92 113 98.06 112.267 98.06C111.067 98.06 110.234 97.7533 109.767 97.14C109.314 96.5133 109.087 95.6333 109.087 94.5C109.087 93.5 109.087 92.5 109.087 91.5C109.1 90.4867 109.114 89.48 109.127 88.48C109.127 88.08 108.934 87.88 108.547 87.88C108.44 87.88 108.334 87.8867 108.227 87.9C108.12 87.9133 108.014 87.92 107.907 87.92C107.867 87.92 107.834 87.9 107.807 87.86C107.794 87.8067 107.787 87.7667 107.787 87.74C107.787 87.5933 107.854 87.5133 107.987 87.5C108.454 87.4467 108.92 87.4133 109.387 87.4C109.867 87.3733 110.34 87.3333 110.807 87.28C110.914 87.3867 110.967 87.52 110.967 87.68C110.967 88.0133 110.96 88.3533 110.947 88.7C110.934 89.0467 110.927 89.3933 110.927 89.74C110.914 90.5533 110.9 91.3733 110.887 92.2C110.887 93.0133 110.887 93.8333 110.887 94.66C110.887 94.9133 110.894 95.1867 110.907 95.48C110.92 95.76 110.974 96.02 111.067 96.26C111.214 96.6333 111.487 96.9 111.887 97.06C112.3 97.2067 112.694 97.28 113.067 97.28C113.48 97.28 113.894 97.2067 114.307 97.06C114.734 96.9 115.094 96.6733 115.387 96.38C115.694 96.0733 115.867 95.6933 115.907 95.24C115.934 95.0133 115.947 94.7867 115.947 94.56C115.96 94.32 115.967 94.0867 115.967 93.86L115.947 88.42C115.947 88.2467 115.887 88.12 115.767 88.04C115.66 87.96 115.534 87.92 115.387 87.92C115.254 87.92 115.12 87.9267 114.987 87.94C114.867 87.9533 114.74 87.96 114.607 87.96C114.487 87.96 114.427 87.8933 114.427 87.76C114.427 87.6267 114.487 87.5533 114.607 87.54C114.767 87.5133 114.934 87.5 115.107 87.5C115.28 87.4867 115.454 87.4733 115.627 87.46L117.007 87.32C117.1 87.3067 117.194 87.2933 117.287 87.28C117.394 87.2667 117.494 87.26 117.587 87.26C117.654 87.26 117.7 87.3 117.727 87.38C117.754 87.4467 117.767 87.5 117.767 87.54C117.727 90.4333 117.707 93.32 117.707 96.2C117.707 96.5333 117.78 96.8067 117.927 97.02C118.087 97.2333 118.347 97.34 118.707 97.34C118.814 97.34 118.907 97.3267 118.987 97.3C119.08 97.2733 119.174 97.26 119.267 97.26C119.414 97.26 119.487 97.3267 119.487 97.46ZM126.966 97.08C126.966 97.2 126.872 97.32 126.686 97.44C126.512 97.56 126.299 97.6667 126.046 97.76C125.792 97.8533 125.546 97.9267 125.306 97.98C125.079 98.0333 124.912 98.06 124.806 98.06C124.112 98.06 123.572 97.9733 123.186 97.8C122.812 97.6267 122.546 97.34 122.386 96.94C122.239 96.54 122.166 96 122.166 95.32C122.166 94.2133 122.166 93.1067 122.166 92C122.179 90.88 122.192 89.7667 122.206 88.66H120.766C120.672 88.66 120.592 88.6867 120.526 88.74C120.472 88.78 120.412 88.8 120.346 88.8C120.279 88.8 120.246 88.7533 120.246 88.66C120.246 88.6067 120.279 88.5 120.346 88.34C120.426 88.18 120.479 88.0733 120.506 88.02C120.546 88.0333 120.606 88.04 120.686 88.04H122.246L122.266 85.5C122.572 85.3 122.852 85.08 123.106 84.84C123.359 84.5867 123.612 84.3333 123.866 84.08C123.892 84.0533 123.919 84.0333 123.946 84.02C123.972 83.9933 123.999 83.98 124.026 83.98C124.146 83.98 124.206 84.0267 124.206 84.12L124.086 88.02C124.512 88.02 124.932 88.0133 125.346 88C125.772 87.9867 126.192 87.98 126.606 87.98C126.779 87.98 126.866 88.08 126.866 88.28C126.866 88.5333 126.752 88.66 126.526 88.66H124.086C124.086 89.6733 124.079 90.6933 124.066 91.72C124.066 92.7333 124.066 93.7533 124.066 94.78V96.32C124.066 96.6533 124.206 96.8867 124.486 97.02C124.766 97.14 125.039 97.2 125.306 97.2C125.679 97.2 126.046 97.14 126.406 97.02C126.446 96.9933 126.506 96.9667 126.586 96.94C126.666 96.9133 126.726 96.9 126.766 96.9C126.899 96.9 126.966 96.96 126.966 97.08ZM150.807 97.72C150.807 97.8933 150.727 97.98 150.567 97.98C150.074 97.98 149.587 97.9667 149.107 97.94C148.627 97.9133 148.147 97.9 147.667 97.9C147.44 97.9 147.214 97.9067 146.987 97.92C146.76 97.92 146.534 97.9267 146.307 97.94C146.08 97.9533 145.854 97.9733 145.627 98C145.414 98.0133 145.194 98.02 144.967 98.02C144.847 98.02 144.767 97.9867 144.727 97.92C144.7 97.84 144.687 97.7533 144.687 97.66C144.687 97.6067 144.7 97.5533 144.727 97.5C144.754 97.4333 144.8 97.4 144.867 97.4C144.907 97.3867 144.967 97.38 145.047 97.38C145.14 97.38 145.234 97.3867 145.327 97.4C145.434 97.4 145.534 97.4 145.627 97.4C145.814 97.4 146.02 97.38 146.247 97.34C146.487 97.3 146.62 97.1533 146.647 96.9C146.66 96.86 146.66 96.82 146.647 96.78C146.647 96.74 146.647 96.7 146.647 96.66V84.4H146.527C146.02 85.7733 145.494 87.14 144.947 88.5C144.4 89.8467 143.854 91.1933 143.307 92.54C143.094 93.0867 142.874 93.6333 142.647 94.18C142.42 94.7267 142.194 95.2733 141.967 95.82C141.874 96.06 141.78 96.3067 141.687 96.56C141.607 96.8133 141.507 97.0533 141.387 97.28C141.294 97.4267 141.147 97.5 140.947 97.5C140.76 97.5 140.62 97.4267 140.527 97.28C140.42 97.08 140.32 96.8667 140.227 96.64C140.147 96.4133 140.06 96.1933 139.967 95.98C139.767 95.5133 139.574 95.0533 139.387 94.6C139.2 94.1467 139.014 93.6933 138.827 93.24C138.214 91.7733 137.6 90.3133 136.987 88.86C136.387 87.3933 135.787 85.9333 135.187 84.48C135.187 86.5467 135.187 88.62 135.187 90.7C135.2 92.7667 135.207 94.8333 135.207 96.9C135.207 97.1667 135.32 97.32 135.547 97.36C135.787 97.4 136.007 97.42 136.207 97.42C136.34 97.42 136.474 97.4133 136.607 97.4C136.74 97.3867 136.874 97.38 137.007 97.38C137.074 97.38 137.107 97.42 137.107 97.5C137.107 97.5667 137.1 97.66 137.087 97.78C137.074 97.9 137.02 97.96 136.927 97.96C136.567 97.96 136.2 97.9533 135.827 97.94C135.467 97.9133 135.107 97.9 134.747 97.9C134.4 97.9 134.047 97.9133 133.687 97.94C133.34 97.9533 132.994 97.96 132.647 97.96C132.634 97.9333 132.62 97.9133 132.607 97.9C132.607 97.8733 132.6 97.8533 132.587 97.84V97.66C132.587 97.5267 132.614 97.4533 132.667 97.44C132.72 97.4267 132.794 97.42 132.887 97.42C132.994 97.42 133.094 97.4267 133.187 97.44C133.28 97.44 133.374 97.44 133.467 97.44C133.667 97.44 133.88 97.4133 134.107 97.36C134.334 97.3067 134.454 97.1533 134.467 96.9C134.494 96.6867 134.5 96.4733 134.487 96.26C134.487 96.0333 134.487 95.8133 134.487 95.6C134.487 95.1733 134.48 94.7467 134.467 94.32C134.467 93.88 134.467 93.4467 134.467 93.02C134.467 91.5933 134.474 90.1733 134.487 88.76C134.514 87.3467 134.527 85.9333 134.527 84.52C134.527 84.2667 134.407 84.1 134.167 84.02C133.927 83.94 133.707 83.9 133.507 83.9C133.387 83.9 133.267 83.9067 133.147 83.92C133.027 83.9333 132.907 83.94 132.787 83.94C132.707 83.94 132.654 83.9 132.627 83.82C132.6 83.74 132.587 83.6733 132.587 83.62C132.587 83.4333 132.66 83.34 132.807 83.34C133.154 83.34 133.507 83.3533 133.867 83.38C134.227 83.3933 134.58 83.4 134.927 83.4C135.607 83.4 136.287 83.38 136.967 83.34L141.707 94.74C142.44 92.8333 143.207 90.9467 144.007 89.08C144.807 87.2 145.547 85.3 146.227 83.38C146.56 83.3933 146.887 83.4067 147.207 83.42C147.54 83.42 147.874 83.42 148.207 83.42C148.607 83.42 149 83.4067 149.387 83.38C149.787 83.34 150.187 83.32 150.587 83.32C150.667 83.32 150.714 83.36 150.727 83.44C150.74 83.52 150.747 83.5867 150.747 83.64C150.747 83.6933 150.74 83.76 150.727 83.84C150.714 83.92 150.667 83.96 150.587 83.96C150.414 83.96 150.247 83.9533 150.087 83.94C149.927 83.9267 149.767 83.92 149.607 83.92C149.447 83.92 149.247 83.96 149.007 84.04C148.78 84.1067 148.667 84.24 148.667 84.44V96.74C148.667 97.0467 148.754 97.24 148.927 97.32C149.114 97.3867 149.347 97.42 149.627 97.42C149.787 97.42 149.947 97.4133 150.107 97.4C150.267 97.3867 150.434 97.38 150.607 97.38C150.714 97.38 150.774 97.42 150.787 97.5C150.8 97.58 150.807 97.6533 150.807 97.72ZM159.232 90.98C159.219 90.4333 159.172 89.9133 159.092 89.42C159.012 88.9133 158.819 88.5 158.512 88.18C158.206 87.8467 157.706 87.68 157.012 87.68C156.386 87.68 155.872 87.8533 155.472 88.2C155.086 88.5333 154.786 88.96 154.572 89.48C154.359 89.9867 154.199 90.5067 154.092 91.04C154.426 91.0533 154.752 91.0667 155.072 91.08C155.392 91.08 155.712 91.08 156.032 91.08C156.566 91.08 157.099 91.0733 157.632 91.06C158.166 91.0333 158.699 91.0067 159.232 90.98ZM161.532 95.56C161.532 95.6267 161.519 95.6667 161.492 95.68C161.452 95.8133 161.352 95.9733 161.192 96.16C161.046 96.3467 160.879 96.5267 160.692 96.7C160.506 96.86 160.352 96.98 160.232 97.06C159.792 97.3667 159.292 97.6133 158.732 97.8C158.186 97.9867 157.639 98.08 157.092 98.08C156.639 98.08 156.132 98.0067 155.572 97.86C155.026 97.7133 154.559 97.5133 154.172 97.26C153.426 96.7667 152.879 96.12 152.532 95.32C152.186 94.52 152.012 93.6867 152.012 92.82C152.012 91.8333 152.206 90.92 152.592 90.08C152.979 89.24 153.599 88.56 154.452 88.04C154.839 87.8133 155.272 87.6267 155.752 87.48C156.232 87.32 156.692 87.24 157.132 87.24C157.919 87.24 158.612 87.4 159.212 87.72C159.812 88.04 160.279 88.4933 160.612 89.08C160.959 89.6533 161.132 90.34 161.132 91.14C161.132 91.3667 161.079 91.5133 160.972 91.58C160.879 91.6467 160.732 91.68 160.532 91.68C160.266 91.68 159.999 91.6733 159.732 91.66C159.466 91.6467 159.199 91.6333 158.932 91.62C158.559 91.5933 158.186 91.58 157.812 91.58C157.452 91.58 157.086 91.58 156.712 91.58C156.259 91.58 155.806 91.58 155.352 91.58C154.899 91.58 154.446 91.5933 153.992 91.62C153.979 91.8333 153.966 92.04 153.952 92.24C153.939 92.44 153.932 92.6467 153.932 92.86C153.932 93.3533 153.992 93.8667 154.112 94.4C154.232 94.92 154.426 95.4067 154.692 95.86C154.959 96.3 155.299 96.66 155.712 96.94C156.126 97.2067 156.626 97.34 157.212 97.34C157.812 97.34 158.386 97.2467 158.932 97.06C159.479 96.8733 159.979 96.5733 160.432 96.16C160.552 96.04 160.659 95.9133 160.752 95.78C160.859 95.6333 160.972 95.5067 161.092 95.4C161.159 95.3333 161.232 95.3 161.312 95.3C161.379 95.3 161.432 95.3267 161.472 95.38C161.512 95.4333 161.532 95.4933 161.532 95.56Z" fill="white"/>
</g>
<defs>
<filter id="filter0_b_50_778" x="-112.446" y="-81.4949" width="451.589" height="358.622" filterUnits="userSpaceOnUse" color-interpolation-filters="sRGB">
<feFlood flood-opacity="0" result="BackgroundImageFix"/>
<feGaussianBlur in="BackgroundImageFix" stdDeviation="21"/>
<feComposite in2="SourceAlpha" operator="in" result="effect1_backgroundBlur_50_778"/>
<feBlend mode="normal" in="SourceGraphic" in2="effect1_backgroundBlur_50_778" result="shape"/>
</filter>
<linearGradient id="paint0_linear_50_778" x1="-23.5332" y1="-42.759" x2="335.331" y2="202.188" gradientUnits="userSpaceOnUse">
<stop stop-color="white" stop-opacity="0.47"/>
<stop offset="1" stop-color="white" stop-opacity="0"/>
</linearGradient>
<radialGradient id="paint1_radial_50_778" cx="0" cy="0" r="1" gradientUnits="userSpaceOnUse" gradientTransform="translate(-23.5332 -42.759) rotate(34.3723) scale(443.3 700.205)">
<stop stop-color="white" stop-opacity="0.7"/>
<stop offset="1" stop-color="white" stop-opacity="0"/>
</radialGradient>
<clipPath id="clip0_50_778">
<rect width="181" height="181" fill="white" transform="matrix(-0.969881 -0.243579 -0.243579 0.969881 219.637 44.0878)"/>
</clipPath>
</defs>
</svg>
