<svg width="153" height="191" viewBox="0 0 153 191" fill="none" xmlns="http://www.w3.org/2000/svg">
<mask id="mask0_78_779" style="mask-type:alpha" maskUnits="userSpaceOnUse" x="0" y="0" width="153" height="153">
<g clip-path="url(#clip0_78_779)">
<path d="M42.8462 42.7585C33.2039 68.9574 48.7857 96.0347 63.7849 101.557C78.7841 107.079 108.236 96.4614 117.85 70.3586C119.662 65.4344 120.486 60.2015 120.276 54.9588C120.065 49.716 118.824 44.566 116.624 39.8028C114.423 35.0396 111.306 30.7566 107.45 27.1981C103.594 23.6397 99.0746 20.8756 94.1504 19.0637C89.2262 17.2517 83.9933 16.4274 78.7506 16.6378C73.5078 16.8482 68.3578 18.0891 63.5946 20.2898C58.8315 22.4905 54.5484 25.6078 50.9899 29.4638C47.4315 33.3198 44.6674 37.8388 42.8555 42.763L42.8462 42.7585Z" fill="#070707" stroke="#070707" stroke-width="11.3125" stroke-miterlimit="10"/>
<path d="M78.204 89.8525C86.9129 88.4105 96.8724 82.8652 102.822 73.317ZM36.1184 128.769C44.8274 127.328 53.705 122.326 59.6543 112.78Z" fill="#070707"/>
<path d="M78.204 89.8525C86.9129 88.4105 96.8724 82.8652 102.822 73.317M36.1184 128.769C44.8274 127.328 53.705 122.326 59.6543 112.78" stroke="#070707" stroke-width="11.3125" stroke-miterlimit="10" stroke-linecap="round"/>
<path d="M67.5359 102.933L67.1554 115.54L52.1557 110.02L60.0372 100.174L67.5359 102.933Z" fill="#070707" stroke="#070707" stroke-width="11.3125" stroke-linecap="round" stroke-linejoin="round"/>
</g>
</mask>
<g mask="url(#mask0_78_779)">
<g filter="url(#filter0_b_78_779)">
<rect x="-21.7441" y="-28.6392" width="236.199" height="145.68" rx="20" transform="rotate(12.2012 -21.7441 -28.6392)" fill="url(#paint0_linear_78_779)"/>
<rect x="-22.1272" y="-29.2335" width="237.199" height="146.68" rx="20.5" transform="rotate(12.2012 -22.1272 -29.2335)" stroke="url(#paint1_radial_78_779)"/>
</g>
<path d="M69.7699 56.4058C69.7699 56.4592 69.7499 56.5258 69.7099 56.6058C69.6833 56.6858 69.6366 56.7258 69.5699 56.7258C69.4499 56.7258 69.3299 56.7192 69.2099 56.7058C69.1033 56.6925 68.9899 56.6858 68.8699 56.6858C68.6699 56.6858 68.5099 56.7658 68.3899 56.9258C68.2699 57.0858 68.1766 57.2792 68.1099 57.5058C68.0566 57.7192 68.0099 57.9058 67.9699 58.0658C67.4899 60.1725 67.0366 62.2925 66.6099 64.4258C66.1833 66.5592 65.7233 68.6792 65.2299 70.7858H63.4899C62.9833 68.9592 62.4366 67.1525 61.8499 65.3658C61.2633 63.5792 60.6966 61.7792 60.1499 59.9658C59.5499 61.7792 58.9433 63.5925 58.3299 65.4058C57.7299 67.2058 57.1099 68.9992 56.4699 70.7858H54.9099C54.7633 70.1992 54.6299 69.6125 54.5099 69.0258C54.4033 68.4392 54.2833 67.8592 54.1499 67.2858L52.7499 60.6258C52.6433 60.1058 52.5366 59.5792 52.4299 59.0458C52.3366 58.4992 52.2166 57.9725 52.0699 57.4658C51.9633 57.0658 51.7833 56.8392 51.5299 56.7858C51.2899 56.7325 50.9966 56.7058 50.6499 56.7058C50.5299 56.7058 50.4566 56.6658 50.4299 56.5858C50.4166 56.5058 50.4099 56.4192 50.4099 56.3258C50.4099 56.1658 50.4766 56.0858 50.6099 56.0858C50.7566 56.0858 50.9033 56.0925 51.0499 56.1058C51.2099 56.1192 51.3633 56.1325 51.5099 56.1458C52.0166 56.1592 52.5233 56.1658 53.0299 56.1658C53.5366 56.1658 54.0433 56.1658 54.5499 56.1658C54.7766 56.1658 55.0033 56.1592 55.2299 56.1458C55.4566 56.1192 55.6766 56.1058 55.8899 56.1058C55.9699 56.1058 56.0299 56.1392 56.0699 56.2058C56.1099 56.2725 56.1299 56.3392 56.1299 56.4058C56.1299 56.5792 56.0499 56.6658 55.8899 56.6658C55.7299 56.6658 55.5633 56.6592 55.3899 56.6458C55.2299 56.6325 55.0699 56.6258 54.9099 56.6258C54.7366 56.6258 54.5833 56.6658 54.4499 56.7458C54.3299 56.8125 54.2699 56.9458 54.2699 57.1458C54.2699 57.2125 54.2699 57.2792 54.2699 57.3458C54.2833 57.4125 54.2966 57.4792 54.3099 57.5458C54.4299 58.1725 54.5433 58.8125 54.6499 59.4658C54.7566 60.1058 54.8699 60.7392 54.9899 61.3658C55.2166 62.5792 55.4433 63.7925 55.6699 65.0058C55.9099 66.2192 56.1433 67.4325 56.3699 68.6458C56.8633 67.2192 57.3433 65.7925 57.8099 64.3658C58.2899 62.9392 58.7633 61.5125 59.2299 60.0858C59.4166 59.5125 59.5899 58.9392 59.7499 58.3658C59.9099 57.7792 60.0899 57.2058 60.2899 56.6458C60.3433 56.5125 60.3966 56.4192 60.4499 56.3658C60.5033 56.2992 60.6033 56.2658 60.7499 56.2658C60.9899 56.2658 61.1566 56.3658 61.2499 56.5658C61.3433 56.7658 61.4166 56.9858 61.4699 57.2258C61.5233 57.4658 61.5766 57.6925 61.6299 57.9058C61.7633 58.3592 61.8899 58.8058 62.0099 59.2458C62.1299 59.6858 62.2566 60.1325 62.3899 60.5858C62.7899 61.9592 63.2099 63.3325 63.6499 64.7058C64.0899 66.0658 64.5033 67.4392 64.8899 68.8258C65.1433 67.7458 65.3766 66.6658 65.5899 65.5858C65.8166 64.4925 66.0366 63.3992 66.2499 62.3058C66.3966 61.6125 66.5233 60.9192 66.6299 60.2258C66.7499 59.5192 66.8633 58.8192 66.9699 58.1258C66.9966 57.9392 67.0166 57.7525 67.0299 57.5658C67.0566 57.3792 67.0699 57.1925 67.0699 57.0058C67.0699 56.8192 66.9833 56.7058 66.8099 56.6658C66.6499 56.6125 66.4966 56.5858 66.3499 56.5858C66.1766 56.5858 66.0033 56.5925 65.8299 56.6058C65.6566 56.6192 65.4833 56.6258 65.3099 56.6258C65.2166 56.6258 65.1566 56.6058 65.1299 56.5658C65.1166 56.5125 65.1099 56.4592 65.1099 56.4058C65.1099 56.2192 65.1833 56.1258 65.3299 56.1258C65.7566 56.1258 66.1833 56.1392 66.6099 56.1658C67.0366 56.1792 67.4633 56.1858 67.8899 56.1858C68.1833 56.1858 68.4699 56.1792 68.7499 56.1658C69.0299 56.1392 69.3166 56.1258 69.6099 56.1258C69.6766 56.1258 69.7166 56.1592 69.7299 56.2258C69.7566 56.2925 69.7699 56.3525 69.7699 56.4058ZM79.5899 65.4658C79.5899 64.8925 79.5433 64.3192 79.4499 63.7458C79.3699 63.1592 79.2099 62.6192 78.9699 62.1258C78.7433 61.6325 78.4099 61.2392 77.9699 60.9458C77.5299 60.6392 76.9566 60.4858 76.2499 60.4858C75.5833 60.4858 75.0366 60.6458 74.6099 60.9658C74.1966 61.2858 73.8699 61.6992 73.6299 62.2058C73.4033 62.7125 73.2433 63.2592 73.1499 63.8458C73.0699 64.4325 73.0299 64.9858 73.0299 65.5058C73.0299 66.0792 73.0699 66.6525 73.1499 67.2258C73.2433 67.7992 73.4099 68.3192 73.6499 68.7858C73.8899 69.2392 74.2299 69.6058 74.6699 69.8858C75.1233 70.1658 75.7033 70.3058 76.4099 70.3058C77.1033 70.3058 77.6566 70.1592 78.0699 69.8658C78.4966 69.5725 78.8166 69.1858 79.0299 68.7058C79.2566 68.2258 79.4033 67.7058 79.4699 67.1458C79.5499 66.5725 79.5899 66.0125 79.5899 65.4658ZM81.6499 65.5258C81.6499 66.5258 81.4099 67.4258 80.9299 68.2258C80.4633 69.0258 79.8233 69.6592 79.0099 70.1258C78.2099 70.5925 77.3099 70.8258 76.3099 70.8258C75.3366 70.8258 74.4566 70.5925 73.6699 70.1258C72.8833 69.6458 72.2566 69.0125 71.7899 68.2258C71.3233 67.4258 71.0899 66.5392 71.0899 65.5658C71.0899 64.5658 71.3166 63.6458 71.7699 62.8058C72.2233 61.9525 72.8433 61.2658 73.6299 60.7458C74.4299 60.2258 75.3499 59.9658 76.3899 59.9658C77.5099 59.9658 78.4633 60.2058 79.2499 60.6858C80.0366 61.1525 80.6299 61.8058 81.0299 62.6458C81.4433 63.4725 81.6499 64.4325 81.6499 65.5258ZM91.2723 61.8458C91.2723 61.9792 91.2189 62.1058 91.1123 62.2258C91.0189 62.3325 90.8989 62.3858 90.7523 62.3858C90.5523 62.3858 90.4056 62.3192 90.3123 62.1858C90.2323 62.0525 90.1589 61.8992 90.0923 61.7258C90.0389 61.5525 89.9523 61.3992 89.8323 61.2658C89.7123 61.1325 89.5123 61.0658 89.2323 61.0658C89.1789 61.0658 89.1256 61.0658 89.0723 61.0658C89.0323 61.0658 88.9856 61.0725 88.9323 61.0858C88.7056 61.1258 88.4589 61.2658 88.1923 61.5058C87.9256 61.7458 87.6656 62.0325 87.4123 62.3658C87.1723 62.6858 86.9723 63.0058 86.8123 63.3258C86.6523 63.6458 86.5656 63.9125 86.5523 64.1258C86.5389 64.3392 86.5323 64.5525 86.5323 64.7658C86.5323 64.9658 86.5323 65.1658 86.5323 65.3658C86.5323 66.0858 86.5323 66.8058 86.5323 67.5258C86.5456 68.2458 86.5523 68.9592 86.5523 69.6658C86.5523 69.8658 86.6323 70.0125 86.7923 70.1058C86.9656 70.1858 87.1389 70.2258 87.3123 70.2258C87.4456 70.2258 87.5789 70.2192 87.7123 70.2058C87.8456 70.1925 87.9789 70.1858 88.1123 70.1858C88.1789 70.1858 88.2256 70.2192 88.2523 70.2858C88.2789 70.3392 88.2923 70.3925 88.2923 70.4458C88.2923 70.6592 88.1856 70.7658 87.9723 70.7658C87.5723 70.7658 87.1723 70.7592 86.7723 70.7458C86.3723 70.7192 85.9723 70.7058 85.5723 70.7058C85.1589 70.7058 84.7389 70.7192 84.3123 70.7458C83.8989 70.7725 83.4789 70.7858 83.0523 70.7858C82.9989 70.7858 82.9589 70.7458 82.9323 70.6658C82.9189 70.5858 82.9123 70.5192 82.9123 70.4658C82.9123 70.3325 82.9656 70.2592 83.0723 70.2458C83.2189 70.2192 83.3723 70.2125 83.5323 70.2258C83.6923 70.2392 83.8389 70.2458 83.9723 70.2458C84.1723 70.2458 84.3323 70.2058 84.4523 70.1258C84.5856 70.0325 84.6589 69.8792 84.6723 69.6658C84.6989 69.2392 84.7123 68.8058 84.7123 68.3658C84.7256 67.9258 84.7323 67.4858 84.7323 67.0458V65.1058C84.7189 64.5325 84.7123 63.9658 84.7123 63.4058C84.7256 62.8325 84.7056 62.2658 84.6523 61.7058C84.6389 61.4392 84.5656 61.2525 84.4323 61.1458C84.2989 61.0258 84.0989 60.9658 83.8323 60.9658C83.7256 60.9658 83.6123 60.9792 83.4923 61.0058C83.3856 61.0192 83.2723 61.0258 83.1523 61.0258C83.0456 61.0258 82.9923 60.9458 82.9923 60.7858C82.9923 60.6925 83.0389 60.6258 83.1323 60.5858C83.2656 60.5458 83.4056 60.5192 83.5523 60.5058C83.6989 60.4792 83.8389 60.4592 83.9723 60.4458C84.3323 60.3792 84.6923 60.3125 85.0523 60.2458C85.4123 60.1792 85.7723 60.0992 86.1323 60.0058C86.2523 60.0458 86.3389 60.1192 86.3923 60.2258C86.4189 60.2792 86.4389 60.4258 86.4523 60.6658C86.4656 60.9058 86.4723 61.1858 86.4723 61.5058C86.4723 61.8125 86.4723 62.1058 86.4723 62.3858C86.4723 62.6525 86.4723 62.8392 86.4723 62.9458C86.7656 62.4792 87.0989 62.0125 87.4723 61.5458C87.8456 61.0792 88.2723 60.6925 88.7523 60.3858C89.2323 60.0792 89.7723 59.9258 90.3723 59.9258C90.6923 59.9258 90.8989 60.0258 90.9923 60.2258C91.0856 60.4258 91.1456 60.6592 91.1723 60.9258C91.1989 61.0725 91.2189 61.2258 91.2323 61.3858C91.2589 61.5458 91.2723 61.6992 91.2723 61.8458ZM103.279 70.4458C103.279 70.5392 103.186 70.6058 102.999 70.6458C102.812 70.6858 102.612 70.7125 102.399 70.7258C102.199 70.7392 102.059 70.7458 101.979 70.7458C101.792 70.7458 101.586 70.7458 101.359 70.7458C101.132 70.7325 100.926 70.6992 100.739 70.6458C100.566 70.5925 100.419 70.4992 100.299 70.3658C100.192 70.2325 100.099 70.0992 100.019 69.9658C99.419 69.0458 98.8257 68.1258 98.239 67.2058C97.6523 66.2858 97.0723 65.3592 96.499 64.4258L95.339 65.2858V69.7658C95.339 70.0858 95.499 70.2458 95.819 70.2458C95.939 70.2458 96.059 70.2458 96.179 70.2458C96.299 70.2325 96.4123 70.2258 96.519 70.2258C96.5857 70.2258 96.6523 70.2458 96.719 70.2858C96.799 70.3258 96.839 70.3858 96.839 70.4658C96.839 70.6258 96.7657 70.7058 96.619 70.7058C96.2457 70.7058 95.879 70.7058 95.519 70.7058C95.159 70.6925 94.7923 70.6858 94.419 70.6858C94.1657 70.6858 93.899 70.6925 93.619 70.7058C93.3523 70.7058 93.0857 70.7125 92.819 70.7258C92.739 70.7258 92.6523 70.7325 92.559 70.7458C92.479 70.7592 92.3923 70.7658 92.299 70.7658C92.2457 70.7658 92.199 70.7392 92.159 70.6858C92.1323 70.6192 92.119 70.5592 92.119 70.5058C92.119 70.4125 92.159 70.3525 92.239 70.3258C92.319 70.2992 92.3923 70.2858 92.459 70.2858C92.5257 70.2858 92.599 70.2925 92.679 70.3058C92.759 70.3058 92.8323 70.3058 92.899 70.3058C93.1123 70.3058 93.279 70.2858 93.399 70.2458C93.519 70.1925 93.579 70.0458 93.579 69.8058V56.9258C93.579 56.6192 93.5257 56.4125 93.419 56.3058C93.3123 56.1992 93.099 56.1458 92.779 56.1458C92.6723 56.1458 92.5657 56.1592 92.459 56.1858C92.3523 56.1992 92.2457 56.2058 92.139 56.2058C92.0057 56.2058 91.939 56.1392 91.939 56.0058C91.939 55.9125 91.9923 55.8525 92.099 55.8258C92.3523 55.7592 92.6123 55.7125 92.879 55.6858C93.159 55.6458 93.4257 55.6058 93.679 55.5658C93.799 55.5392 93.9657 55.5058 94.179 55.4658C94.3923 55.4125 94.599 55.3658 94.799 55.3258C95.0123 55.2858 95.159 55.2658 95.239 55.2658C95.3057 55.2658 95.339 55.3058 95.339 55.3858L95.319 64.6858C95.999 64.1792 96.6523 63.6458 97.279 63.0858C97.9057 62.5258 98.5257 61.9592 99.139 61.3858C99.3657 61.1858 99.579 60.9858 99.779 60.7858C99.979 60.5725 100.166 60.3525 100.339 60.1258C100.419 60.0325 100.532 59.9858 100.679 59.9858C100.812 59.9858 100.939 59.9925 101.059 60.0058C101.192 60.0192 101.326 60.0258 101.459 60.0258C101.619 60.0258 101.779 60.0192 101.939 60.0058C102.112 59.9925 102.279 59.9858 102.439 59.9858C102.639 59.9858 102.739 60.0925 102.739 60.3058C102.739 60.4125 102.659 60.4658 102.499 60.4658C102.286 60.4792 102.079 60.4992 101.879 60.5258C101.679 60.5525 101.486 60.6392 101.299 60.7858C100.699 61.2125 100.112 61.6658 99.539 62.1458C98.9657 62.6258 98.3857 63.0992 97.799 63.5658C98.039 63.9792 98.2923 64.3858 98.559 64.7858C98.8257 65.1725 99.0857 65.5592 99.339 65.9458C99.699 66.4792 100.059 67.0125 100.419 67.5458C100.792 68.0658 101.166 68.5858 101.539 69.1058C101.726 69.3592 101.959 69.6125 102.239 69.8658C102.532 70.1058 102.839 70.2392 103.159 70.2658C103.239 70.2792 103.279 70.3392 103.279 70.4458ZM111.575 67.8858C111.575 68.4858 111.442 68.9792 111.175 69.3658C110.908 69.7392 110.562 70.0258 110.135 70.2258C109.708 70.4258 109.242 70.5658 108.735 70.6458C108.228 70.7258 107.735 70.7658 107.255 70.7658C106.815 70.7658 106.375 70.7192 105.935 70.6258C105.508 70.5325 105.075 70.4658 104.635 70.4258C104.542 70.0658 104.448 69.7058 104.355 69.3458C104.275 68.9858 104.182 68.6325 104.075 68.2858C104.062 68.2458 104.028 68.1525 103.975 68.0058C103.935 67.8592 103.915 67.7792 103.915 67.7658C103.915 67.6592 103.948 67.5858 104.015 67.5458C104.082 67.4925 104.162 67.4658 104.255 67.4658C104.348 67.4658 104.415 67.4992 104.455 67.5658C104.535 67.6592 104.602 67.7858 104.655 67.9458C104.722 68.1058 104.782 68.2458 104.835 68.3658C104.942 68.5792 105.035 68.7458 105.115 68.8658C105.195 68.9725 105.322 69.1125 105.495 69.2858C106.015 69.8325 106.662 70.1058 107.435 70.1058C107.862 70.1058 108.248 70.0592 108.595 69.9658C108.955 69.8725 109.242 69.6992 109.455 69.4458C109.668 69.1792 109.775 68.7992 109.775 68.3058C109.775 67.8792 109.642 67.5258 109.375 67.2458C109.108 66.9525 108.762 66.6925 108.335 66.4658C107.922 66.2392 107.482 66.0192 107.015 65.8058C106.548 65.5925 106.102 65.3592 105.675 65.1058C105.262 64.8392 104.922 64.5192 104.655 64.1458C104.388 63.7725 104.255 63.3192 104.255 62.7858C104.255 62.1325 104.422 61.5992 104.755 61.1858C105.102 60.7725 105.542 60.4658 106.075 60.2658C106.608 60.0525 107.162 59.9458 107.735 59.9458C108.108 59.9458 108.442 59.9925 108.735 60.0858C109.042 60.1792 109.362 60.2858 109.695 60.4058C109.802 60.4458 109.908 60.4725 110.015 60.4858C110.122 60.4992 110.228 60.5058 110.335 60.5058C110.402 60.5058 110.462 60.5058 110.515 60.5058C110.568 60.5058 110.622 60.4992 110.675 60.4858C110.715 60.7258 110.748 60.9725 110.775 61.2258C110.815 61.4658 110.848 61.7125 110.875 61.9658C110.888 62.0592 110.902 62.1725 110.915 62.3058C110.942 62.4258 110.955 62.5392 110.955 62.6458C110.955 62.7392 110.935 62.8392 110.895 62.9458C110.855 63.0392 110.775 63.0858 110.655 63.0858C110.562 63.0858 110.482 63.0792 110.415 63.0658C110.362 63.0392 110.315 62.9792 110.275 62.8858C110.208 62.7525 110.148 62.6125 110.095 62.4658C110.055 62.3058 110.008 62.1592 109.955 62.0258C109.782 61.5592 109.482 61.1858 109.055 60.9058C108.628 60.6125 108.168 60.4658 107.675 60.4658C107.048 60.4658 106.575 60.6525 106.255 61.0258C105.935 61.3858 105.775 61.8725 105.775 62.4858C105.775 62.6992 105.828 62.9058 105.935 63.1058C106.055 63.3058 106.188 63.4792 106.335 63.6258C106.615 63.8925 106.942 64.0992 107.315 64.2458C107.702 64.3925 108.068 64.5392 108.415 64.6858C108.868 64.8858 109.335 65.1258 109.815 65.4058C110.308 65.6858 110.722 66.0258 111.055 66.4258C111.402 66.8258 111.575 67.3125 111.575 67.8858Z" fill="#FAF0D7"/>
</g>
<path d="M37.5069 132L35.9399 136.944C33.9953 143.079 33.0055 149.476 33.0049 155.912V155.912C33.0046 159.516 33.5376 163.101 34.5866 166.549L35.2603 168.764V168.764C36.7559 173.68 37.5159 178.791 37.5156 183.931L37.5153 190.695" stroke="#4D4D4D" stroke-width="2"/>
<defs>
<filter id="filter0_b_78_779" x="-91.7617" y="-67.8684" width="340.109" height="270.767" filterUnits="userSpaceOnUse" color-interpolation-filters="sRGB">
<feFlood flood-opacity="0" result="BackgroundImageFix"/>
<feGaussianBlur in="BackgroundImageFix" stdDeviation="21"/>
<feComposite in2="SourceAlpha" operator="in" result="effect1_backgroundBlur_78_779"/>
<feBlend mode="normal" in="SourceGraphic" in2="effect1_backgroundBlur_78_779" result="shape"/>
</filter>
<linearGradient id="paint0_linear_78_779" x1="-21.7441" y1="-28.6392" x2="232.038" y2="144.583" gradientUnits="userSpaceOnUse">
<stop stop-color="white" stop-opacity="0.47"/>
<stop offset="1" stop-color="white" stop-opacity="0"/>
</linearGradient>
<radialGradient id="paint1_radial_78_779" cx="0" cy="0" r="1" gradientUnits="userSpaceOnUse" gradientTransform="translate(-21.7441 -28.6392) rotate(34.3723) scale(313.494 495.172)">
<stop stop-color="white" stop-opacity="0.7"/>
<stop offset="1" stop-color="white" stop-opacity="0"/>
</radialGradient>
<clipPath id="clip0_78_779">
<rect width="128" height="128" fill="white" transform="matrix(-0.977411 -0.211345 -0.211345 0.977411 152.162 27.0522)"/>
</clipPath>
</defs>
</svg>
