<svg width="156" height="226" viewBox="0 0 156 226" fill="none" xmlns="http://www.w3.org/2000/svg">
<mask id="mask0_78_781" style="mask-type:alpha" maskUnits="userSpaceOnUse" x="0" y="0" width="156" height="156">
<g clip-path="url(#clip0_78_781)">
<path d="M45.5456 43.2578C35.0414 69.1232 49.7185 96.7014 64.5267 102.717C79.3349 108.733 109.122 99.0954 119.595 73.3251C121.568 68.4636 122.566 63.2609 122.529 58.014C122.492 52.7672 121.422 47.5789 119.38 42.7455C117.339 37.9121 114.365 33.5282 110.629 29.8441C106.893 26.16 102.467 23.2479 97.6058 21.2739C92.7443 19.3 87.5416 18.3029 82.2947 18.3397C77.0479 18.3764 71.8596 19.4463 67.0262 21.4881C62.1928 23.53 57.8089 26.5038 54.1248 30.2399C50.4407 33.976 47.5286 38.4011 45.5546 43.2626L45.5456 43.2578Z" fill="#070707" stroke="#070707" stroke-width="8.37939" stroke-miterlimit="10"/>
<path d="M79.3264 91.4962C88.0784 90.3433 98.2159 85.1306 104.479 75.7845ZM35.9759 128.999C44.7278 127.846 53.7661 123.141 60.0281 113.797Z" fill="#070707"/>
<path d="M79.3264 91.4962C88.0784 90.3433 98.2159 85.1306 104.479 75.7845M35.9759 128.999C44.7278 127.846 53.7661 123.141 60.0281 113.797" stroke="#070707" stroke-width="8.37939" stroke-miterlimit="10" stroke-linecap="round"/>
<path d="M68.2302 104.217L67.4326 116.804L52.6238 110.791L60.827 101.211L68.2302 104.217Z" fill="#070707" stroke="#070707" stroke-width="8.37939" stroke-linecap="round" stroke-linejoin="round"/>
</g>
</mask>
<g mask="url(#mask0_78_781)">
<g filter="url(#filter0_b_78_781)">
<rect x="-16.6406" y="-30.2384" width="236.199" height="145.68" rx="14.8144" transform="rotate(14.0979 -16.6406 -30.2384)" fill="url(#paint0_linear_78_781)"/>
<rect x="-16.9096" y="-30.6878" width="236.94" height="146.42" rx="15.1847" transform="rotate(14.0979 -16.9096 -30.6878)" stroke="url(#paint1_radial_78_781)" stroke-width="0.740719"/>
</g>
<path d="M69.1765 65.2285C69.1765 65.7915 69.0481 66.2606 68.7913 66.6359C68.5345 67.0112 68.1938 67.3124 67.7691 67.5396C67.3543 67.7568 66.9 67.9148 66.4062 68.0136C65.9222 68.1025 65.4482 68.1469 64.984 68.1469C64.3815 68.1469 63.8137 68.0531 63.2803 67.8655C63.0631 67.7865 62.8507 67.7025 62.6433 67.6136C62.4359 67.5149 62.2186 67.4358 61.9915 67.3766C61.952 67.0606 61.8829 66.7149 61.7841 66.3396C61.6952 65.9643 61.6508 65.6236 61.6508 65.3174C61.6508 65.1791 61.6705 65.0754 61.71 65.0063C61.7594 64.9273 61.8631 64.8878 62.0211 64.8878C62.1594 64.8878 62.2483 64.9223 62.2878 64.9915C62.3273 65.0507 62.3569 65.1347 62.3767 65.2433C62.4162 65.3816 62.4507 65.5199 62.4804 65.6581C62.51 65.7865 62.5446 65.9198 62.5841 66.0581C62.7816 66.6507 63.0729 67.0655 63.4581 67.3025C63.8532 67.5396 64.3569 67.6581 64.9692 67.6581C65.4729 67.6581 65.9222 67.5889 66.3173 67.4507C66.7222 67.3025 67.0383 67.0655 67.2654 66.7396C67.5024 66.4137 67.621 65.9791 67.621 65.4359C67.621 65.0112 67.4778 64.631 67.1913 64.2952C66.9049 63.9495 66.5889 63.6779 66.2432 63.4804C66.1642 63.431 66.0803 63.3866 65.9914 63.3471C65.9025 63.3076 65.8136 63.2681 65.7247 63.2286C65.4186 63.0705 65.1074 62.9125 64.7914 62.7545C64.4852 62.5965 64.1741 62.4434 63.8581 62.2953C63.5519 62.1372 63.2359 61.9397 62.91 61.7027C62.5939 61.4558 62.3223 61.1743 62.0952 60.8583C61.8779 60.5422 61.7693 60.1966 61.7693 59.8213C61.7693 59.1892 61.9372 58.6657 62.273 58.2509C62.6088 57.8361 63.0384 57.525 63.5618 57.3176C64.0853 57.1102 64.6285 57.0065 65.1914 57.0065C65.5963 57.0065 65.9568 57.0559 66.2728 57.1547C66.5988 57.2534 66.9197 57.3571 67.2358 57.4658C67.5518 57.5645 67.8975 57.6337 68.2728 57.6732C68.3024 57.9695 68.332 58.2657 68.3617 58.562C68.3913 58.8583 68.4357 59.1546 68.495 59.4509C68.5049 59.4904 68.5098 59.5299 68.5098 59.5694C68.5197 59.6089 68.5246 59.6484 68.5246 59.6879C68.5246 59.8459 68.4703 59.9496 68.3617 59.999C68.2629 60.0385 68.1493 60.0583 68.0209 60.0583C67.8926 60.0583 67.8234 60.0336 67.8135 59.9842C67.8037 59.9348 67.7889 59.8608 67.7691 59.762C67.6407 58.9719 67.3691 58.3793 66.9543 57.9843C66.5395 57.5793 65.9173 57.3769 65.0877 57.3769C64.4754 57.3769 63.9964 57.5398 63.6507 57.8658C63.3149 58.1917 63.147 58.6657 63.147 59.2879C63.147 59.7027 63.2557 60.0533 63.4729 60.3398C63.6902 60.6262 63.9766 60.878 64.3322 61.0953C64.6976 61.3027 65.0926 61.5002 65.5173 61.6879C65.9519 61.8755 66.3815 62.0681 66.8062 62.2656C67.2308 62.4632 67.621 62.6952 67.9765 62.9619C68.3419 63.2187 68.6333 63.5298 68.8506 63.8952C69.0678 64.2606 69.1765 64.7051 69.1765 65.2285ZM78.491 67.7914C78.491 67.8605 78.4219 67.9099 78.2836 67.9395C78.1453 67.9692 77.9972 67.9889 77.8392 67.9988C77.691 68.0087 77.5873 68.0136 77.5281 68.0136C77.3898 68.0136 77.2367 68.0136 77.0688 68.0136C76.9009 68.0037 76.7479 67.979 76.6096 67.9395C76.4812 67.9 76.3726 67.8309 76.2837 67.7321C76.2047 67.6334 76.1355 67.5346 76.0763 67.4358C75.6318 66.7544 75.1923 66.0729 74.7578 65.3915C74.3232 64.71 73.8936 64.0236 73.4689 63.3323L72.6097 63.9693V67.2877C72.6097 67.5247 72.7282 67.6433 72.9652 67.6433C73.0541 67.6433 73.143 67.6433 73.2319 67.6433C73.3208 67.6334 73.4047 67.6284 73.4837 67.6284C73.5331 67.6284 73.5825 67.6433 73.6319 67.6729C73.6912 67.7025 73.7208 67.747 73.7208 67.8062C73.7208 67.9247 73.6665 67.984 73.5578 67.984C73.2813 67.984 73.0097 67.984 72.743 67.984C72.4764 67.9741 72.2048 67.9692 71.9282 67.9692C71.7406 67.9692 71.5431 67.9741 71.3357 67.984C71.1381 67.984 70.9406 67.9889 70.7431 67.9988C70.6838 67.9988 70.6196 68.0037 70.5505 68.0136C70.4912 68.0235 70.427 68.0284 70.3579 68.0284C70.3184 68.0284 70.2838 68.0087 70.2542 67.9692C70.2345 67.9198 70.2246 67.8753 70.2246 67.8358C70.2246 67.7667 70.2542 67.7223 70.3135 67.7025C70.3727 67.6828 70.427 67.6729 70.4764 67.6729C70.5258 67.6729 70.5801 67.6778 70.6394 67.6877C70.6986 67.6877 70.753 67.6877 70.8023 67.6877C70.9604 67.6877 71.0838 67.6729 71.1727 67.6433C71.2616 67.6037 71.306 67.4951 71.306 67.3173V57.7769C71.306 57.5497 71.2665 57.3966 71.1875 57.3176C71.1085 57.2386 70.9505 57.1991 70.7135 57.1991C70.6344 57.1991 70.5554 57.209 70.4764 57.2287C70.3974 57.2386 70.3184 57.2436 70.2394 57.2436C70.1406 57.2436 70.0913 57.1942 70.0913 57.0954C70.0913 57.0263 70.1308 56.9818 70.2098 56.9621C70.3974 56.9127 70.59 56.8781 70.7875 56.8584C70.9949 56.8287 71.1925 56.7991 71.3801 56.7695C71.469 56.7497 71.5924 56.725 71.7505 56.6954C71.9085 56.6559 72.0616 56.6213 72.2097 56.5917C72.3677 56.5621 72.4764 56.5473 72.5356 56.5473C72.585 56.5473 72.6097 56.5769 72.6097 56.6362L72.5949 63.5249C73.0986 63.1496 73.5825 62.7545 74.0467 62.3397C74.5109 61.9249 74.9701 61.5052 75.4244 61.0805C75.5923 60.9323 75.7504 60.7842 75.8985 60.636C76.0466 60.478 76.1849 60.3151 76.3133 60.1472C76.3726 60.078 76.4565 60.0435 76.5651 60.0435C76.6639 60.0435 76.7577 60.0484 76.8466 60.0583C76.9454 60.0682 77.0441 60.0731 77.1429 60.0731C77.2614 60.0731 77.3799 60.0682 77.4984 60.0583C77.6268 60.0484 77.7503 60.0435 77.8688 60.0435C78.017 60.0435 78.091 60.1225 78.091 60.2805C78.091 60.3595 78.0318 60.399 77.9133 60.399C77.7552 60.4089 77.6021 60.4237 77.454 60.4435C77.3059 60.4632 77.1627 60.5274 77.0244 60.636C76.58 60.9521 76.1454 61.2879 75.7207 61.6434C75.296 61.999 74.8664 62.3496 74.4319 62.6952C74.6096 63.0014 74.7973 63.3026 74.9948 63.5989C75.1923 63.8853 75.3849 64.1717 75.5726 64.4582C75.8392 64.8532 76.1059 65.2483 76.3726 65.6433C76.6491 66.0285 76.9256 66.4137 77.2022 66.7988C77.3404 66.9865 77.5133 67.1741 77.7207 67.3618C77.9379 67.5396 78.1651 67.6383 78.4021 67.6581C78.4614 67.6679 78.491 67.7124 78.491 67.7914ZM83.199 67.7914C83.199 67.8408 83.1842 67.8902 83.1545 67.9395C83.1249 67.979 83.0854 67.9988 83.036 67.9988C82.7595 67.9988 82.4829 67.9939 82.2064 67.984C81.9398 67.9642 81.6632 67.9544 81.3768 67.9544H80.9768C80.6805 67.9544 80.3842 67.9642 80.088 67.984C79.8015 67.9939 79.5151 67.9988 79.2287 67.9988C79.1892 67.9988 79.1596 67.9741 79.1398 67.9247C79.13 67.8753 79.125 67.8358 79.125 67.8062C79.125 67.7568 79.13 67.7223 79.1398 67.7025C79.1497 67.6729 79.1793 67.6531 79.2287 67.6433C79.2781 67.6235 79.3324 67.6186 79.3917 67.6284C79.4608 67.6284 79.525 67.6284 79.5843 67.6284C79.6534 67.6284 79.7176 67.6334 79.7769 67.6433C79.8361 67.6433 79.9003 67.6433 79.9694 67.6433C80.1077 67.6433 80.2312 67.6136 80.3398 67.5544C80.4583 67.4852 80.5176 67.3717 80.5176 67.2136V61.2879C80.5176 61.12 80.4879 60.9916 80.4287 60.9027C80.3694 60.8039 80.246 60.7546 80.0583 60.7546C79.9201 60.7546 79.7769 60.7644 79.6287 60.7842C79.4904 60.7941 79.3522 60.8089 79.2139 60.8286C79.1349 60.8286 79.0954 60.7842 79.0954 60.6953C79.0954 60.5965 79.1349 60.5323 79.2139 60.5027C79.3324 60.4632 79.4559 60.4385 79.5843 60.4286C79.7225 60.4089 79.8509 60.3891 79.9694 60.3694C80.246 60.32 80.5225 60.2657 80.799 60.2064C81.0756 60.1472 81.3472 60.083 81.6138 60.0138C81.6435 60.004 81.683 59.999 81.7324 59.999C81.841 59.999 81.8953 60.0583 81.8953 60.1768C81.8953 61.3422 81.8904 62.5125 81.8805 63.6878C81.8805 64.8631 81.8805 66.0384 81.8805 67.2136C81.8805 67.3717 81.9496 67.4852 82.0879 67.5544C82.236 67.6136 82.3743 67.6433 82.5027 67.6433C82.6015 67.6433 82.7002 67.6383 82.799 67.6284C82.9076 67.6186 83.0113 67.6136 83.1101 67.6136C83.1496 67.6136 83.1743 67.6383 83.1842 67.6877C83.194 67.7371 83.199 67.7716 83.199 67.7914ZM81.999 57.5398C81.999 57.7867 81.9101 57.9991 81.7324 58.1769C81.5546 58.3448 81.3422 58.4287 81.0953 58.4287C80.8484 58.4287 80.6361 58.3448 80.4583 58.1769C80.2805 57.9991 80.1917 57.7867 80.1917 57.5398C80.1917 57.2929 80.2805 57.0855 80.4583 56.9176C80.6361 56.7399 80.8484 56.651 81.0953 56.651C81.3422 56.651 81.5546 56.7399 81.7324 56.9176C81.9101 57.0855 81.999 57.2929 81.999 57.5398ZM88.2618 67.821C88.2618 67.8704 88.247 67.9198 88.2174 67.9692C88.1976 68.0087 88.1581 68.0284 88.0988 68.0284C87.7927 68.0284 87.4816 68.0235 87.1655 68.0136C86.8495 67.9939 86.5334 67.984 86.2174 67.984H85.6989C85.4915 67.984 85.2841 67.9939 85.0767 68.0136C84.8693 68.0235 84.6619 68.0284 84.4545 68.0284C84.415 68.0284 84.3854 68.0136 84.3656 67.984C84.3557 67.9445 84.3508 67.9099 84.3508 67.8803C84.3508 67.8507 84.3508 67.821 84.3508 67.7914C84.3508 67.7618 84.3557 67.7321 84.3656 67.7025C84.3854 67.663 84.4397 67.6433 84.5286 67.6433C84.6273 67.6334 84.7261 67.6334 84.8249 67.6433C84.9335 67.6433 85.0026 67.6433 85.0323 67.6433C85.1705 67.6433 85.294 67.6136 85.4026 67.5544C85.5113 67.4852 85.5656 67.3717 85.5656 67.2136C85.5656 66.4532 85.5705 65.6976 85.5804 64.947C85.5903 64.1866 85.5952 63.431 85.5952 62.6804C85.5952 61.9101 85.5903 61.1397 85.5804 60.3694C85.5804 59.5892 85.5804 58.8139 85.5804 58.0435C85.5804 57.9744 85.5755 57.9003 85.5656 57.8213C85.5557 57.7324 85.5261 57.6633 85.4767 57.6139C85.4372 57.5645 85.3977 57.5398 85.3582 57.5398C85.3187 57.53 85.2693 57.525 85.21 57.525C85.0323 57.525 84.8545 57.5547 84.6767 57.6139C84.5088 57.6732 84.3409 57.7028 84.173 57.7028C84.0644 57.7028 84.0101 57.6386 84.0101 57.5102C84.0101 57.4312 84.0693 57.3769 84.1878 57.3473C84.3162 57.3176 84.415 57.2979 84.4841 57.288C84.8298 57.209 85.2051 57.1201 85.61 57.0213C86.0149 56.9226 86.3804 56.809 86.7063 56.6806C86.726 56.6806 86.7458 56.6757 86.7655 56.6658C86.7853 56.6559 86.8001 56.651 86.81 56.651C86.8692 56.651 86.9038 56.6707 86.9137 56.7102C86.9334 56.7497 86.9433 56.7942 86.9433 56.8436C86.9433 57.1201 86.9384 57.3966 86.9285 57.6732C86.9285 57.9398 86.9285 58.2114 86.9285 58.488V62.636C86.9285 63.3965 86.9334 64.1619 86.9433 64.9322C86.9532 65.6927 86.9581 66.4532 86.9581 67.2136C86.9581 67.3717 87.0223 67.4852 87.1507 67.5544C87.289 67.6136 87.4223 67.6433 87.5507 67.6433C87.6593 67.6433 87.763 67.6383 87.8618 67.6284C87.9606 67.6186 88.0593 67.6136 88.1581 67.6136C88.2075 67.6136 88.2371 67.6433 88.247 67.7025C88.2569 67.7519 88.2618 67.7914 88.2618 67.821ZM93.3832 67.821C93.3832 67.8704 93.3684 67.9198 93.3387 67.9692C93.319 68.0087 93.2795 68.0284 93.2202 68.0284C92.9141 68.0284 92.6029 68.0235 92.2869 68.0136C91.9709 67.9939 91.6548 67.984 91.3388 67.984H90.8203C90.6129 67.984 90.4055 67.9939 90.1981 68.0136C89.9907 68.0235 89.7833 68.0284 89.5759 68.0284C89.5364 68.0284 89.5067 68.0136 89.487 67.984C89.4771 67.9445 89.4722 67.9099 89.4722 67.8803C89.4722 67.8507 89.4722 67.821 89.4722 67.7914C89.4722 67.7618 89.4771 67.7321 89.487 67.7025C89.5067 67.663 89.5611 67.6433 89.6499 67.6433C89.7487 67.6334 89.8475 67.6334 89.9462 67.6433C90.0549 67.6433 90.124 67.6433 90.1536 67.6433C90.2919 67.6433 90.4154 67.6136 90.524 67.5544C90.6326 67.4852 90.687 67.3717 90.687 67.2136C90.687 66.4532 90.6919 65.6976 90.7018 64.947C90.7116 64.1866 90.7166 63.431 90.7166 62.6804C90.7166 61.9101 90.7116 61.1397 90.7018 60.3694C90.7018 59.5892 90.7018 58.8139 90.7018 58.0435C90.7018 57.9744 90.6968 57.9003 90.687 57.8213C90.6771 57.7324 90.6475 57.6633 90.5981 57.6139C90.5586 57.5645 90.5191 57.5398 90.4796 57.5398C90.44 57.53 90.3907 57.525 90.3314 57.525C90.1536 57.525 89.9759 57.5547 89.7981 57.6139C89.6302 57.6732 89.4623 57.7028 89.2944 57.7028C89.1858 57.7028 89.1314 57.6386 89.1314 57.5102C89.1314 57.4312 89.1907 57.3769 89.3092 57.3473C89.4376 57.3176 89.5364 57.2979 89.6055 57.288C89.9512 57.209 90.3265 57.1201 90.7314 57.0213C91.1363 56.9226 91.5017 56.809 91.8277 56.6806C91.8474 56.6806 91.8672 56.6757 91.8869 56.6658C91.9067 56.6559 91.9215 56.651 91.9314 56.651C91.9906 56.651 92.0252 56.6707 92.0351 56.7102C92.0548 56.7497 92.0647 56.7942 92.0647 56.8436C92.0647 57.1201 92.0598 57.3966 92.0499 57.6732C92.0499 57.9398 92.0499 58.2114 92.0499 58.488V62.636C92.0499 63.3965 92.0548 64.1619 92.0647 64.9322C92.0746 65.6927 92.0795 66.4532 92.0795 67.2136C92.0795 67.3717 92.1437 67.4852 92.2721 67.5544C92.4104 67.6136 92.5437 67.6433 92.6721 67.6433C92.7807 67.6433 92.8844 67.6383 92.9832 67.6284C93.0819 67.6186 93.1807 67.6136 93.2795 67.6136C93.3289 67.6136 93.3585 67.6433 93.3684 67.7025C93.3782 67.7519 93.3832 67.7914 93.3832 67.821ZM99.9712 65.8952C99.9712 66.3396 99.8724 66.705 99.6749 66.9914C99.4774 67.268 99.2206 67.4803 98.9045 67.6284C98.5885 67.7766 98.2428 67.8803 97.8675 67.9395C97.4922 67.9988 97.1268 68.0284 96.7713 68.0284C96.4454 68.0284 96.1194 67.9939 95.7935 67.9247C95.4775 67.8556 95.1565 67.8062 94.8306 67.7766C94.7615 67.5099 94.6923 67.2433 94.6232 66.9766C94.5639 66.7099 94.4948 66.4482 94.4158 66.1914C94.4059 66.1618 94.3812 66.0927 94.3417 65.984C94.3121 65.8754 94.2973 65.8161 94.2973 65.8063C94.2973 65.7273 94.322 65.6729 94.3713 65.6433C94.4207 65.6038 94.48 65.5841 94.5491 65.5841C94.6182 65.5841 94.6676 65.6087 94.6973 65.6581C94.7565 65.7273 94.8059 65.8211 94.8454 65.9396C94.8948 66.0581 94.9392 66.1618 94.9787 66.2507C95.0577 66.4087 95.1269 66.5322 95.1861 66.6211C95.2454 66.7001 95.3392 66.8038 95.4676 66.9322C95.8528 67.3371 96.3318 67.5396 96.9046 67.5396C97.2206 67.5396 97.507 67.505 97.7638 67.4358C98.0305 67.3667 98.2428 67.2383 98.4009 67.0507C98.5589 66.8532 98.6379 66.5717 98.6379 66.2063C98.6379 65.8902 98.5391 65.6285 98.3416 65.4211C98.1441 65.2038 97.8873 65.0112 97.5712 64.8433C97.2651 64.6754 96.9392 64.5125 96.5935 64.3545C96.2478 64.1964 95.917 64.0236 95.6009 63.836C95.2948 63.6384 95.0429 63.4014 94.8454 63.1249C94.6479 62.8483 94.5491 62.5125 94.5491 62.1175C94.5491 61.6335 94.6726 61.2385 94.9195 60.9323C95.1763 60.6262 95.5022 60.399 95.8972 60.2509C96.2923 60.0929 96.7021 60.0138 97.1268 60.0138C97.4033 60.0138 97.6503 60.0484 97.8675 60.1175C98.0947 60.1867 98.3317 60.2657 98.5786 60.3546C98.6576 60.3842 98.7366 60.404 98.8157 60.4138C98.8947 60.4237 98.9737 60.4286 99.0527 60.4286C99.1021 60.4286 99.1465 60.4286 99.186 60.4286C99.2255 60.4286 99.265 60.4237 99.3045 60.4138C99.3342 60.5916 99.3588 60.7743 99.3786 60.962C99.4082 61.1397 99.4329 61.3224 99.4527 61.5101C99.4625 61.5792 99.4724 61.6632 99.4823 61.7619C99.5021 61.8508 99.5119 61.9348 99.5119 62.0138C99.5119 62.0829 99.4971 62.157 99.4675 62.236C99.4379 62.3051 99.3786 62.3397 99.2897 62.3397C99.2206 62.3397 99.1613 62.3348 99.1119 62.3249C99.0724 62.3051 99.0379 62.2607 99.0082 62.1916C98.9589 62.0928 98.9144 61.9891 98.8749 61.8805C98.8453 61.7619 98.8107 61.6533 98.7712 61.5545C98.6428 61.2089 98.4206 60.9323 98.1046 60.7249C97.7885 60.5077 97.4478 60.399 97.0824 60.399C96.6182 60.399 96.2676 60.5373 96.0305 60.8138C95.7935 61.0805 95.675 61.441 95.675 61.8953C95.675 62.0533 95.7145 62.2064 95.7935 62.3545C95.8824 62.5027 95.9812 62.6311 96.0898 62.7397C96.2972 62.9372 96.5392 63.0903 96.8157 63.1989C97.1021 63.3076 97.3737 63.4162 97.6305 63.5249C97.9663 63.673 98.312 63.8508 98.6675 64.0582C99.0329 64.2656 99.3391 64.5174 99.586 64.8137C99.8428 65.11 99.9712 65.4705 99.9712 65.8952Z" fill="#FAF0D7"/>
</g>
<path d="M36.9991 133L35.5179 140.406C33.5103 150.444 32.4991 160.656 32.4991 170.893V170.893C32.4991 176.618 33.0426 182.33 34.1223 187.953L34.7555 191.25V191.25C36.2564 199.066 37.012 207.006 37.0121 214.965L37.0123 226" stroke="#4D4D4D" stroke-width="2"/>
<defs>
<filter id="filter0_b_78_781" x="-80.8172" y="-58.9308" width="321.953" height="256.21" filterUnits="userSpaceOnUse" color-interpolation-filters="sRGB">
<feFlood flood-opacity="0" result="BackgroundImageFix"/>
<feGaussianBlur in="BackgroundImageFix" stdDeviation="15.5551"/>
<feComposite in2="SourceAlpha" operator="in" result="effect1_backgroundBlur_78_781"/>
<feBlend mode="normal" in="SourceGraphic" in2="effect1_backgroundBlur_78_781" result="shape"/>
</filter>
<linearGradient id="paint0_linear_78_781" x1="-16.6406" y1="-30.2384" x2="237.142" y2="142.984" gradientUnits="userSpaceOnUse">
<stop stop-color="white" stop-opacity="0.47"/>
<stop offset="1" stop-color="white" stop-opacity="0"/>
</linearGradient>
<radialGradient id="paint1_radial_78_781" cx="0" cy="0" r="1" gradientUnits="userSpaceOnUse" gradientTransform="translate(-16.6406 -30.2384) rotate(34.3723) scale(313.494 495.172)">
<stop stop-color="white" stop-opacity="0.7"/>
<stop offset="1" stop-color="white" stop-opacity="0"/>
</radialGradient>
<clipPath id="clip0_78_781">
<rect width="128" height="128" fill="white" transform="matrix(-0.969881 -0.243579 -0.243579 0.969881 155.322 31.1781)"/>
</clipPath>
</defs>
</svg>
