<svg width="220" height="220" viewBox="0 0 220 220" fill="none" xmlns="http://www.w3.org/2000/svg">
<mask id="mask0_50_785" style="mask-type:alpha" maskUnits="userSpaceOnUse" x="0" y="0" width="220" height="220">
<g clip-path="url(#clip0_50_785)">
<path d="M64.4064 61.1692C49.5528 97.7445 70.3072 136.742 91.2469 145.248C112.187 153.755 154.307 140.127 169.116 103.686C171.908 96.8118 173.317 89.4548 173.265 82.0354C173.213 74.6161 171.701 67.2796 168.813 60.4448C165.926 53.6101 161.721 47.411 156.438 42.2014C151.155 36.9919 144.897 32.8739 138.023 30.0826C131.148 27.2914 123.791 25.8815 116.372 25.9335C108.953 25.9854 101.616 27.4982 94.7814 30.3855C87.9467 33.2728 81.7475 37.478 76.538 42.7611C71.3284 48.0441 67.2105 54.3015 64.4192 61.176L64.4064 61.1692Z" fill="#070707" stroke="#070707" stroke-width="11.3125" stroke-miterlimit="10"/>
<path d="M112.174 129.381C124.549 127.751 138.884 120.38 147.74 107.164L112.174 129.381ZM50.8732 182.413C63.249 180.782 76.0297 174.129 84.8846 160.916L50.8732 182.413Z" fill="#070707"/>
<path d="M112.174 129.381C124.549 127.751 138.884 120.38 147.74 107.164M50.8732 182.413C63.249 180.782 76.0297 174.129 84.8846 160.916" stroke="#070707" stroke-width="11.3125" stroke-miterlimit="10" stroke-linecap="round"/>
<path d="M96.4844 147.369L95.3567 165.168L74.4161 156.665L86.0159 143.118L96.4844 147.369Z" fill="#070707" stroke="#070707" stroke-width="11.3125" stroke-linecap="round" stroke-linejoin="round"/>
</g>
</mask>
<g mask="url(#mask0_50_785)">
<g filter="url(#filter0_b_50_785)">
<rect x="-23.5332" y="-42.759" width="334" height="206" rx="20" transform="rotate(14.0979 -23.5332 -42.759)" fill="url(#paint0_linear_50_785)"/>
<rect x="-23.8964" y="-43.3658" width="335" height="207" rx="20.5" transform="rotate(14.0979 -23.8964 -43.3658)" stroke="url(#paint1_radial_50_785)"/>
</g>
</g>
<path d="M128.555 101.08L118.774 85.7078L128.425 75.0906C128.644 74.8446 128.756 74.5224 128.738 74.1939C128.721 73.8655 128.574 73.5572 128.331 73.336C128.087 73.1148 127.767 72.9985 127.438 73.0122C127.109 73.0259 126.799 73.1686 126.575 73.4094L117.382 83.5219L111.055 73.5797C110.942 73.4021 110.786 73.2559 110.602 73.1546C110.418 73.0532 110.211 73.0001 110 73H102.5C102.276 72.9999 102.056 73.06 101.863 73.1742C101.67 73.2883 101.512 73.4521 101.404 73.6486C101.296 73.8451 101.243 74.067 101.25 74.291C101.258 74.515 101.325 74.7329 101.446 74.9219L111.227 90.2922L101.575 100.917C101.463 101.038 101.375 101.18 101.318 101.336C101.26 101.491 101.234 101.656 101.241 101.821C101.248 101.986 101.288 102.149 101.358 102.298C101.428 102.448 101.527 102.583 101.65 102.694C101.772 102.805 101.915 102.891 102.071 102.947C102.227 103.002 102.392 103.026 102.557 103.017C102.723 103.008 102.884 102.967 103.033 102.895C103.182 102.823 103.316 102.722 103.425 102.598L112.619 92.4859L118.946 102.428C119.059 102.604 119.216 102.749 119.4 102.849C119.584 102.949 119.791 103.001 120 103H127.5C127.724 103 127.944 102.94 128.137 102.826C128.329 102.712 128.488 102.548 128.596 102.352C128.703 102.156 128.756 101.934 128.749 101.71C128.742 101.486 128.675 101.269 128.555 101.08ZM120.686 100.5L104.777 75.5H109.308L125.224 100.5H120.686Z" fill="white"/>
<defs>
<filter id="filter0_b_50_785" x="-112.446" y="-81.4948" width="451.589" height="358.622" filterUnits="userSpaceOnUse" color-interpolation-filters="sRGB">
<feFlood flood-opacity="0" result="BackgroundImageFix"/>
<feGaussianBlur in="BackgroundImageFix" stdDeviation="21"/>
<feComposite in2="SourceAlpha" operator="in" result="effect1_backgroundBlur_50_785"/>
<feBlend mode="normal" in="SourceGraphic" in2="effect1_backgroundBlur_50_785" result="shape"/>
</filter>
<linearGradient id="paint0_linear_50_785" x1="-23.5332" y1="-42.759" x2="335.331" y2="202.188" gradientUnits="userSpaceOnUse">
<stop stop-color="white" stop-opacity="0.47"/>
<stop offset="1" stop-color="white" stop-opacity="0"/>
</linearGradient>
<radialGradient id="paint1_radial_50_785" cx="0" cy="0" r="1" gradientUnits="userSpaceOnUse" gradientTransform="translate(-23.5332 -42.759) rotate(34.3723) scale(443.3 700.205)">
<stop stop-color="white" stop-opacity="0.7"/>
<stop offset="1" stop-color="white" stop-opacity="0"/>
</radialGradient>
<clipPath id="clip0_50_785">
<rect width="181" height="181" fill="white" transform="matrix(-0.969881 -0.243579 -0.243579 0.969881 219.637 44.0878)"/>
</clipPath>
</defs>
</svg>
